<svg width="657" height="102" viewBox="0 0 657 102" fill="none" xmlns="http://www.w3.org/2000/svg">
<path d="M51.8203 40.9C48.5536 45.0334 45.187 49.0334 41.7203 52.9C38.2536 56.7 34.7536 60.1 31.2203 63.1C27.7536 66.0334 24.287 68.4001 20.8203 70.2001C17.3536 71.9334 14.0203 72.8 10.8203 72.8C8.62031 72.8 6.85365 72.5334 5.52031 72.0001C4.25365 71.5334 3.25365 70.9667 2.52031 70.3C1.85365 69.5667 1.38698 68.8334 1.12031 68.1001C0.920312 67.3001 0.820312 66.6001 0.820312 66.0001C0.820312 64.8667 1.15365 63.9 1.82031 63.1C2.48698 62.3 3.42031 61.9001 4.62031 61.9001C5.68698 61.9001 6.52031 62.2667 7.12031 63C7.72031 63.7334 8.02031 64.6001 8.02031 65.6001C8.02031 66.2001 7.85365 66.8 7.52031 67.4C7.18698 68 6.72031 68.3667 6.12031 68.5001C6.72031 69.4334 7.55365 70.0667 8.62031 70.4C9.68698 70.6667 10.787 70.8 11.9203 70.8C14.787 70.8 17.787 69.9667 20.9203 68.3C24.1203 66.6334 27.3203 64.4667 30.5203 61.8C33.787 59.0667 37.0203 56 40.2203 52.6C43.4203 49.1334 46.487 45.6 49.4203 42C50.687 40.4001 52.2536 38.4334 54.1203 36.1C56.0536 33.7667 58.2203 31.2334 60.6203 28.5C63.0203 25.7667 65.6203 23.0001 68.4203 20.2001C71.287 17.3334 74.3203 14.6334 77.5203 12.1C80.7203 9.56671 84.0537 7.30005 87.5203 5.30004C90.987 3.30005 94.5203 1.80005 98.1203 0.800049L98.4203 1.20005C96.1536 3.26671 93.787 5.83338 91.3203 8.90005C88.8537 11.9667 86.4203 15.3 84.0203 18.9C81.687 22.4334 79.4537 26.1667 77.3203 30.1C75.187 34.0334 73.287 37.9667 71.6203 41.9C70.0203 45.7667 68.7203 49.5 67.7203 53.1C66.787 56.7 66.3203 60 66.3203 63C66.3203 65.0667 66.6536 66.8334 67.3203 68.3C68.0536 69.7 69.487 70.4 71.6203 70.4C72.887 70.4 74.3203 69.9334 75.9203 69.0001C77.587 68.0667 79.3203 66.8334 81.1203 65.3C82.9203 63.7667 84.687 62.0667 86.4203 60.2001C88.2203 58.3334 89.9203 56.5001 91.5203 54.7001C93.1203 52.8334 94.5536 51.1 95.8203 49.5C97.087 47.8334 98.087 46.5001 98.8203 45.5L99.5203 45.8C97.2536 48.6667 94.8537 51.7001 92.3203 54.9001C89.787 58.1001 87.2203 61.0334 84.6203 63.7001C82.0203 66.3001 79.387 68.4667 76.7203 70.2001C74.1203 71.9334 71.6203 72.8 69.2203 72.8C67.6203 72.8 66.2537 72.5334 65.1203 72.0001C64.0537 71.4001 63.1537 70.6001 62.4203 69.6001C61.687 68.6001 61.1536 67.4667 60.8203 66.2001C60.487 64.9334 60.3203 63.6001 60.3203 62.2001C60.3203 58.4001 60.8536 54.7667 61.9203 51.3C62.987 47.7667 64.187 44.3 65.5203 40.9H51.8203ZM66.0203 39.7001C69.0203 33.5001 72.5536 27.4334 76.6203 21.5C80.7537 15.5667 85.6203 9.93338 91.2203 4.60005L91.0203 4.40004C87.487 6.13338 84.0203 8.26671 80.6203 10.8C77.287 13.3334 74.0203 16.1334 70.8203 19.2001C67.6203 22.2667 64.487 25.5334 61.4203 29C58.4203 32.4667 55.487 36.0334 52.6203 39.7001H66.0203Z" fill="#4E4138"/>
<path d="M108.554 37.6L95.3539 55.9L95.5539 56.1C96.9539 54.4334 98.5872 52.5 100.454 50.3C102.321 48.0334 104.321 45.9 106.454 43.9C108.587 41.9 110.787 40.2334 113.054 38.9C115.387 37.5 117.687 36.8 119.954 36.8C121.954 36.8 123.487 37.3667 124.554 38.5C125.687 39.5667 126.254 40.9667 126.254 42.7001C126.254 43.7667 125.854 45.0334 125.054 46.5C124.321 47.9667 123.387 49.5334 122.254 51.2001C121.121 52.8667 119.887 54.5667 118.554 56.3C117.221 58.0334 115.987 59.7 114.854 61.3C113.721 62.8334 112.754 64.2667 111.954 65.6001C111.221 66.8667 110.854 67.9334 110.854 68.8C110.854 70.6667 111.787 71.6001 113.654 71.6001C115.787 71.6001 118.054 70.9001 120.454 69.5001C122.854 68.0334 125.721 65.6001 129.054 62.2001C130.387 60.8667 131.721 59.4 133.054 57.8C134.454 56.2 135.787 54.6334 137.054 53.1C138.321 51.5 139.454 50 140.454 48.6C141.521 47.2 142.354 46.0334 142.954 45.1L143.654 45.5C142.321 47.5 140.587 49.9 138.454 52.7001C136.387 55.4334 134.121 58.1334 131.654 60.8C130.187 62.4 128.687 63.9334 127.154 65.4C125.621 66.8667 124.087 68.1667 122.554 69.3C121.021 70.3667 119.487 71.2334 117.954 71.9C116.487 72.5 115.021 72.8 113.554 72.8C111.621 72.8 110.021 72.2667 108.754 71.2001C107.487 70.1334 106.854 68.6667 106.854 66.8C106.854 64.8 107.654 62.6334 109.254 60.3C110.854 57.9 112.621 55.5 114.554 53.1C116.487 50.7 118.254 48.4001 119.854 46.2001C121.454 44.0001 122.254 42.0667 122.254 40.4C122.254 39.6 121.987 39 121.454 38.6C120.921 38.2 120.221 38 119.354 38C117.687 38 115.821 38.6334 113.754 39.9C111.687 41.1 109.554 42.7334 107.354 44.8C105.221 46.8 103.054 49.0667 100.854 51.6C98.7206 54.0667 96.7206 56.5667 94.8539 59.1C92.9872 61.5667 91.3206 63.9667 89.8539 66.3C88.3872 68.5667 87.2872 70.4667 86.5539 72.0001H80.3539C82.0872 69.0667 83.9539 66.1 85.9539 63.1C87.8872 60.0334 89.8206 57.0334 91.7539 54.1C93.6872 51.1 95.5206 48.2334 97.2539 45.5C99.0539 42.7 100.654 40.1667 102.054 37.9L108.554 37.6Z" fill="#4E4138"/>
<path d="M198.688 2.80005C196.087 6.93338 193.254 11.3 190.188 15.9C187.121 20.5 184.054 25.0667 180.988 29.6C177.921 34.1334 174.954 38.5334 172.087 42.8C169.287 47 166.788 50.8667 164.588 54.4C162.388 57.9334 160.621 61 159.288 63.6C158.021 66.1334 157.387 68.0001 157.387 69.2001C157.387 69.9334 157.554 70.5334 157.887 71.0001C158.287 71.4001 158.854 71.6001 159.587 71.6001C161.254 71.6001 163.154 70.9334 165.288 69.6001C167.421 68.2667 169.988 66.1667 172.988 63.3C175.588 60.7667 178.121 57.9667 180.588 54.9001C183.054 51.7667 185.188 48.7001 186.988 45.7001L187.788 46.1C187.188 47.1667 186.387 48.4334 185.387 49.9C184.454 51.3 183.388 52.7667 182.188 54.3C181.054 55.8334 179.821 57.4 178.488 59C177.154 60.5334 175.787 62.0001 174.387 63.4001C171.721 66.1334 169.088 68.4001 166.488 70.2001C163.888 71.9334 161.488 72.8 159.288 72.8C157.154 72.8 155.554 72.3667 154.488 71.5001C153.488 70.5667 152.988 69.4001 152.988 68.0001C152.988 66.7334 153.254 65.5 153.788 64.3C154.321 63.1 154.854 62.0334 155.387 61.1L155.188 61C154.121 62.2 152.921 63.5 151.587 64.9C150.321 66.2334 148.954 67.5001 147.488 68.7001C146.021 69.9001 144.454 70.9001 142.788 71.7001C141.188 72.4334 139.521 72.8 137.788 72.8C135.388 72.8 133.521 72.0667 132.188 70.6001C130.921 69.1334 130.288 67.4 130.288 65.4C130.288 62.6 131.254 59.5334 133.188 56.2001C135.121 52.8667 137.521 49.7667 140.387 46.9C143.321 44.0334 146.454 41.6334 149.788 39.7001C153.121 37.7667 156.221 36.8 159.087 36.8C161.221 36.8 162.921 37.4667 164.188 38.8C165.454 40.1334 166.054 41.8334 165.988 43.9H166.288L192.087 2.80005H198.688ZM163.188 44C163.188 42.4 162.921 41 162.387 39.8C161.854 38.6001 160.621 38 158.688 38C157.354 38 155.854 38.4667 154.188 39.4001C152.587 40.3334 150.954 41.5667 149.288 43.1C147.621 44.6334 145.987 46.4 144.387 48.4C142.854 50.3334 141.488 52.3334 140.288 54.4C139.088 56.4 138.121 58.3667 137.387 60.3C136.654 62.2334 136.288 63.9667 136.288 65.5C136.288 66.9 136.554 68.0667 137.087 69.0001C137.621 69.9334 138.588 70.4 139.988 70.4C141.188 70.4 142.554 69.9334 144.087 69.0001C145.687 68.0667 147.354 66.8667 149.087 65.4C150.821 63.8667 152.521 62.1334 154.188 60.2001C155.854 58.2667 157.354 56.3334 158.688 54.4C160.021 52.4667 161.087 50.6 161.887 48.8C162.754 46.9334 163.188 45.3334 163.188 44Z" fill="#4E4138"/>
<path d="M197.621 37.6L184.921 56.1L185.121 56.3C186.054 55.1667 187.221 53.8667 188.621 52.4C190.088 50.8667 191.654 49.3334 193.321 47.8C195.054 46.2 196.854 44.6334 198.721 43.1C200.588 41.5667 202.421 40.2 204.221 39C204.554 38.3334 204.921 37.8 205.321 37.4C205.721 37 206.521 36.8 207.721 36.8C208.454 36.8 209.088 36.8334 209.621 36.9C210.221 36.9 210.821 36.9334 211.421 37C210.288 38.1334 209.188 39.5334 208.121 41.2C207.054 42.8 206.521 44.5667 206.521 46.5C206.521 48.0334 206.888 49.2334 207.621 50.1C208.421 50.9667 209.388 51.4 210.521 51.4C211.521 51.4 212.488 51.2 213.421 50.8C214.421 50.4 215.354 49.9 216.221 49.3C217.088 48.7 217.921 48.0667 218.721 47.4001C219.521 46.7334 220.221 46.1334 220.821 45.6001L221.421 46C220.754 46.6667 219.988 47.4001 219.121 48.2001C218.254 48.9334 217.321 49.6334 216.321 50.3C215.321 50.9667 214.254 51.5334 213.121 52C211.988 52.4 210.821 52.6 209.621 52.6C207.488 52.6 205.754 51.9667 204.421 50.7001C203.154 49.3667 202.521 47.5334 202.521 45.2001C202.521 43.6 202.888 42.1667 203.621 40.9L203.421 40.7C200.688 42.5667 197.688 45.0334 194.421 48.1C191.154 51.1 187.688 54.6667 184.021 58.8C182.688 60.2667 181.288 62.2001 179.821 64.6001C178.421 67.0001 177.188 69.4667 176.121 72.0001H169.621C173.221 66.2667 176.821 60.5667 180.421 54.9001C184.021 49.2334 187.721 43.4667 191.521 37.6H197.621Z" fill="#4E4138"/>
<path d="M238.722 40.8C238.722 39.8667 238.455 39.1667 237.922 38.7001C237.455 38.2334 236.855 38 236.122 38C234.722 38 233.189 38.5667 231.522 39.7001C229.922 40.7667 228.322 42.1334 226.722 43.8C225.122 45.4 223.655 47.1334 222.322 49C221.055 50.8667 220.089 52.5334 219.422 54C220.889 53.7334 222.722 53.2334 224.922 52.5C227.122 51.7 229.222 50.7334 231.222 49.6C233.289 48.4667 235.055 47.1667 236.522 45.7001C237.989 44.1667 238.722 42.5334 238.722 40.8ZM254.922 46.1C253.922 47.7667 252.655 49.6 251.122 51.6C249.655 53.6 247.955 55.6 246.022 57.6C244.155 59.5334 242.122 61.4334 239.922 63.3C237.789 65.1 235.555 66.7334 233.222 68.2001C230.889 69.6001 228.522 70.7334 226.122 71.6001C223.789 72.4001 221.489 72.8 219.222 72.8C216.422 72.8 214.255 72.1001 212.722 70.7001C211.189 69.2334 210.422 67.1667 210.422 64.5C210.422 61.5667 211.289 58.5 213.022 55.3C214.822 52.0334 217.089 49.0334 219.822 46.3C222.555 43.5667 225.555 41.3001 228.822 39.5C232.089 37.7 235.222 36.8 238.222 36.8C239.889 36.8 241.189 37.1667 242.122 37.9C243.055 38.5667 243.522 39.5667 243.522 40.9C243.522 42.5 242.655 44.0667 240.922 45.6001C239.189 47.0667 237.055 48.4334 234.522 49.7001C232.055 50.9 229.389 52 226.522 53C223.655 53.9334 221.122 54.6334 218.922 55.1C218.189 56.4334 217.589 57.9334 217.122 59.6C216.655 61.2667 216.422 62.9334 216.422 64.6001C216.422 65.4001 216.489 66.2001 216.622 67.0001C216.822 67.7334 217.089 68.4334 217.422 69.1001C217.822 69.7001 218.322 70.2001 218.922 70.6001C219.589 71.0001 220.389 71.2001 221.322 71.2001C223.522 71.2001 226.089 70.5001 229.022 69.1001C232.022 67.6334 235.055 65.7 238.122 63.3C241.189 60.9 244.122 58.1667 246.922 55.1C249.722 52.0334 252.122 48.8667 254.122 45.6001L254.922 46.1Z" fill="#4E4138"/>
<path d="M280.723 37.6H287.223C284.756 41.0667 282.389 44.4334 280.123 47.7001C277.856 50.9667 275.823 54 274.023 56.8C272.289 59.5334 270.889 61.9667 269.823 64.1C268.756 66.1667 268.223 67.8001 268.223 69.0001C268.223 70.7334 269.123 71.6001 270.923 71.6001C272.323 71.6001 274.089 70.9334 276.223 69.6001C278.423 68.2001 280.789 66.3001 283.323 63.9001C285.856 61.5001 288.456 58.7 291.123 55.5C293.789 52.3 296.323 48.9 298.723 45.3L299.323 45.5C297.523 48.2334 295.389 51.2 292.923 54.4C290.523 57.5334 287.989 60.4667 285.323 63.2001C282.656 65.9334 279.989 68.2334 277.323 70.1001C274.656 71.9001 272.156 72.8 269.823 72.8C267.889 72.8 266.456 72.3334 265.523 71.4C264.656 70.4 264.223 69.2334 264.223 67.9C264.223 66.9667 264.356 66.0667 264.623 65.2001C264.956 64.2667 265.289 63.3334 265.623 62.4001L265.423 62.3C264.556 63.2334 263.456 64.3334 262.123 65.6001C260.856 66.8001 259.456 67.9334 257.923 69.0001C256.456 70.0667 254.923 70.9667 253.323 71.7001C251.723 72.4334 250.189 72.8 248.723 72.8C246.256 72.8 244.523 72.0334 243.523 70.5001C242.523 68.9667 242.023 67.2334 242.023 65.3C242.023 62.5667 242.889 59.5667 244.623 56.3C246.356 52.9667 248.556 49.8667 251.223 47C253.889 44.0667 256.789 41.6334 259.923 39.7001C263.056 37.7667 266.023 36.8 268.823 36.8C270.156 36.8 271.323 37 272.323 37.4C273.323 37.7334 274.156 38.2334 274.823 38.9C275.489 39.5 275.989 40.2 276.323 41C276.723 41.8 277.023 42.6334 277.223 43.5H277.423L280.723 37.6ZM248.023 65.6001C248.023 67.1334 248.323 68.3334 248.923 69.2001C249.589 70.0001 250.489 70.4 251.623 70.4C252.756 70.4 254.089 70.0001 255.623 69.2001C257.156 68.3334 258.756 67.2 260.423 65.8C262.089 64.4 263.723 62.8 265.323 61C266.989 59.1334 268.456 57.1667 269.723 55.1C270.989 53.0334 272.023 50.9334 272.823 48.8C273.623 46.6667 274.023 44.6334 274.023 42.7001C274.023 41.1667 273.589 40.0001 272.723 39.2001C271.856 38.4001 270.789 38 269.523 38C267.523 38 265.289 38.8667 262.823 40.6C260.356 42.3334 258.023 44.5667 255.823 47.3C253.623 49.9667 251.756 52.9334 250.223 56.2001C248.756 59.4667 248.023 62.6001 248.023 65.6001Z" fill="#4E4138"/>
<path d="M385.456 59.9001C382.656 64.1001 379.156 67.3001 374.956 69.5001C370.756 71.7001 366.39 72.8 361.856 72.8C360.59 72.8 359.19 72.7001 357.656 72.5001C356.123 72.3001 354.556 72.0001 352.956 71.6001C351.423 71.1334 349.923 70.5667 348.456 69.9C346.99 69.1667 345.656 68.3334 344.456 67.4C343.79 68 343.023 68.6334 342.156 69.3C341.29 69.9 340.29 70.4667 339.156 71.0001C338.09 71.5334 336.89 71.9667 335.556 72.3C334.29 72.6334 332.856 72.8 331.256 72.8C329.056 72.8 327.056 72.4667 325.256 71.8C323.523 71.0667 322.023 70.1 320.756 68.9C319.556 67.7 318.623 66.3001 317.956 64.7001C317.29 63.0334 316.956 61.2667 316.956 59.4001C316.956 57.2001 317.356 55.1334 318.156 53.2001C319.023 51.2667 320.156 49.4667 321.556 47.8C322.956 46.1334 324.523 44.6667 326.256 43.4C328.056 42.1334 329.89 41.1 331.756 40.3C331.756 38.1667 332.19 35.8334 333.056 33.3C333.99 30.7 335.256 28.3 336.856 26.1C338.456 23.8334 340.323 21.9667 342.456 20.5C344.59 18.9667 346.89 18.2 349.356 18.2C351.156 18.2 352.656 18.7334 353.856 19.8C355.056 20.8 355.656 22.2667 355.656 24.2C355.656 25.9334 354.923 27.5667 353.456 29.1C352.056 30.5667 350.356 31.9667 348.356 33.3C346.356 34.5667 344.29 35.7 342.156 36.7001C340.09 37.7 338.423 38.5667 337.156 39.3C337.223 43.8334 338.19 48.1667 340.056 52.3C341.923 56.4334 344.423 60.1 347.556 63.3C350.023 61.1 352.256 58.7334 354.256 56.2001C356.256 53.6667 358.156 51.3334 359.956 49.2001C361.823 47.0001 363.656 45.2 365.456 43.8C367.323 42.3334 369.29 41.6 371.356 41.6C373.09 41.6 374.523 42.0667 375.656 43C376.856 43.9334 377.456 45.1667 377.456 46.7C377.456 47.2334 377.29 47.8334 376.956 48.5C376.69 49.1667 376.323 49.7334 375.856 50.2001C375.323 49.0667 374.456 48.1334 373.256 47.4001C372.056 46.6001 370.59 46.2001 368.856 46.2001C367.59 46.2001 366.39 46.4667 365.256 47C364.19 47.4667 363.156 48.1334 362.156 49C361.223 49.8 360.29 50.7334 359.356 51.8C358.423 52.8667 357.49 54.0001 356.556 55.2001C353.556 58.7334 350.823 61.6667 348.356 64C350.356 66 352.756 67.7001 355.556 69.1001C358.356 70.5001 361.223 71.2001 364.156 71.2001C366.223 71.2001 368.256 70.9 370.256 70.3C372.256 69.7 374.156 68.8667 375.956 67.8C377.756 66.7334 379.423 65.5 380.956 64.1C382.49 62.7 383.823 61.1667 384.956 59.5L385.456 59.9001ZM351.656 23.7C351.656 20.8334 350.456 19.4 348.056 19.4C346.59 19.4 345.023 20.1 343.356 21.5C341.756 22.8334 340.39 24.8 339.256 27.4C338.256 29.7334 337.656 31.8 337.456 33.6C337.256 35.3334 337.156 36.8667 337.156 38.2C339.09 37.3334 340.923 36.4334 342.656 35.5C344.456 34.5667 346.023 33.5334 347.356 32.4C348.69 31.2667 349.723 30 350.456 28.6C351.256 27.1334 351.656 25.5 351.656 23.7ZM322.356 57.8C322.356 59.4 322.59 60.9667 323.056 62.5C323.59 64.0334 324.29 65.4001 325.156 66.6001C326.09 67.7334 327.19 68.6667 328.456 69.4C329.723 70.0667 331.156 70.4 332.756 70.4C335.223 70.4 337.323 70.0334 339.056 69.3C340.79 68.5667 342.29 67.7001 343.556 66.7001C339.89 63.6334 336.99 59.8667 334.856 55.4C332.79 50.8667 331.756 46.2 331.756 41.4C330.223 42.0667 328.856 43 327.656 44.2C326.523 45.3334 325.556 46.6334 324.756 48.1C323.956 49.5667 323.356 51.1334 322.956 52.8C322.556 54.4667 322.356 56.1334 322.356 57.8Z" fill="#4E4138"/>
<path d="M462.689 22.6C462.756 23.2667 462.789 23.9 462.789 24.5C462.789 25.1 462.789 25.7 462.789 26.3C462.789 28.9 462.156 31.4 460.889 33.8C459.689 36.1334 457.956 38.2334 455.689 40.1C453.489 41.9 450.856 43.3334 447.789 44.4C444.722 45.4667 441.356 46 437.689 46C432.222 46 428.122 44.7667 425.389 42.3C422.722 39.8334 421.389 36.6334 421.389 32.7001C421.389 29.5 422.456 26.2 424.589 22.8C426.789 19.4 430.389 16.3 435.389 13.5C440.389 10.7 446.989 8.40005 455.189 6.60005C463.389 4.73338 473.556 3.80005 485.689 3.80005C489.422 3.80005 492.822 3.90005 495.889 4.10005C498.956 4.30005 501.589 4.40004 503.789 4.40004C505.722 4.40004 507.322 4.30005 508.589 4.10005C509.922 3.90005 511.056 3.80005 511.989 3.80005C512.789 3.80005 513.522 4.06671 514.189 4.60005C514.856 5.06671 515.189 5.76671 515.189 6.70004C515.189 7.30004 514.989 7.80005 514.589 8.20005C514.256 8.53338 513.622 8.76671 512.689 8.90005C511.756 9.03338 510.489 9.13338 508.889 9.20005C507.356 9.20005 505.389 9.20005 502.989 9.20005C498.322 9.20005 494.422 10.0334 491.289 11.7C488.222 13.3 485.356 15.7667 482.689 19.1C480.022 22.3667 477.256 26.5 474.389 31.5C471.522 36.4334 467.956 42.2 463.689 48.8C462.222 51.0667 460.356 53.6334 458.089 56.5C455.889 59.3667 453.256 62.0667 450.189 64.6001C447.122 67.1334 443.622 69.2667 439.689 71.0001C435.756 72.7334 431.322 73.6001 426.389 73.6001C424.522 73.6001 422.556 73.3667 420.489 72.9C418.422 72.5 416.522 71.8334 414.789 70.9C413.122 69.9 411.722 68.6001 410.589 67.0001C409.522 65.4001 408.989 63.4334 408.989 61.1C408.989 59.6334 409.389 58.4 410.189 57.4C411.056 56.3334 412.256 55.8 413.789 55.8C414.856 55.8 415.722 56.1667 416.389 56.9001C417.122 57.5667 417.489 58.4334 417.489 59.5C417.489 60.5 417.156 61.3001 416.489 61.9001C415.822 62.5001 415.056 62.8 414.189 62.8C413.722 62.8 413.322 62.7334 412.989 62.6C413.322 65.8 414.822 68.2334 417.489 69.9C420.156 71.5667 423.456 72.4 427.389 72.4C431.122 72.4 434.556 71.5667 437.689 69.9C440.822 68.2334 443.722 66.0334 446.389 63.3C449.122 60.5667 451.689 57.4667 454.089 54C456.489 50.4667 458.856 46.8334 461.189 43.1C463.589 39.3 465.989 35.5667 468.389 31.9C470.789 28.1667 473.322 24.7667 475.989 21.7C478.656 18.6334 481.489 16.0334 484.489 13.9C487.556 11.7 490.922 10.2667 494.589 9.60005V9.40005C491.589 9.40005 488.322 9.26671 484.789 9.00004C481.256 8.73338 477.989 8.60005 474.989 8.60005C466.589 8.60005 459.122 9.23338 452.589 10.5C446.122 11.7 440.656 13.4 436.189 15.6C431.722 17.7334 428.322 20.2667 425.989 23.2C423.722 26.1334 422.589 29.3 422.589 32.7001C422.589 36.7001 423.922 39.7334 426.589 41.8C429.322 43.8 433.156 44.8 438.089 44.8C441.556 44.8 444.722 44.3 447.589 43.3C450.456 42.2334 452.922 40.8667 454.989 39.2001C457.056 37.4667 458.656 35.5001 459.789 33.3C460.989 31.1 461.589 28.8334 461.589 26.5C461.589 25.8334 461.589 25.2 461.589 24.6C461.589 23.9334 461.556 23.2667 461.489 22.6H462.689Z" fill="#4E4138"/>
<path d="M523.141 46.7C521.541 48.5 519.741 49.9334 517.741 51C515.741 52.0667 513.775 52.6 511.841 52.6C509.975 52.6 508.375 52.2 507.041 51.4C505.708 50.5334 504.675 49.5334 503.941 48.4H503.741C503.075 50.9334 501.841 53.6334 500.041 56.5C498.241 59.3667 496.075 62.0001 493.541 64.4001C491.075 66.8001 488.341 68.8 485.341 70.4C482.341 72 479.275 72.8 476.141 72.8C473.275 72.8 471.108 71.9667 469.641 70.3C468.175 68.6334 467.441 66.4 467.441 63.6C467.441 62.1334 467.808 60.4334 468.541 58.5C469.275 56.5667 470.275 54.6334 471.541 52.7001C472.875 50.7001 474.408 48.7667 476.141 46.9C477.941 44.9667 479.875 43.2667 481.941 41.8C484.008 40.2667 486.175 39.0667 488.441 38.2C490.775 37.2667 493.108 36.8 495.441 36.8C498.175 36.8 500.275 37.6 501.741 39.2001C503.275 40.8 504.108 42.8667 504.241 45.4001C504.375 46.9334 505.075 48.3667 506.341 49.7001C507.675 50.9667 509.475 51.6 511.741 51.6C513.741 51.6 515.608 51.1 517.341 50.1C519.141 49.1 520.808 47.8001 522.341 46.2001L523.141 46.7ZM472.841 66.0001C472.841 67.7334 473.175 69.1001 473.841 70.1001C474.508 71.1001 475.508 71.6001 476.841 71.6001C478.641 71.6001 480.408 71.1334 482.141 70.2001C483.941 69.2001 485.641 67.9334 487.241 66.4C488.908 64.8 490.441 63 491.841 61C493.241 59.0001 494.441 56.9334 495.441 54.8C496.508 52.6667 497.341 50.6 497.941 48.6C498.541 46.5334 498.841 44.6667 498.841 43C498.841 41.6 498.475 40.4334 497.741 39.5C497.075 38.5001 496.008 38 494.541 38C493.141 38 491.641 38.4667 490.041 39.4001C488.441 40.2667 486.808 41.4334 485.141 42.9C483.541 44.3667 482.008 46.0667 480.541 48C479.075 49.9334 477.741 51.9334 476.541 54C475.408 56.0667 474.508 58.1334 473.841 60.2001C473.175 62.2667 472.841 64.2001 472.841 66.0001Z" fill="#4E4138"/>
<path d="M532.875 37.6L520.175 56.1L520.375 56.3C521.308 55.1667 522.475 53.8667 523.875 52.4C525.342 50.8667 526.908 49.3334 528.575 47.8C530.308 46.2 532.108 44.6334 533.975 43.1C535.842 41.5667 537.675 40.2 539.475 39C539.808 38.3334 540.175 37.8 540.575 37.4C540.975 37 541.775 36.8 542.975 36.8C543.708 36.8 544.342 36.8334 544.875 36.9C545.475 36.9 546.075 36.9334 546.675 37C545.542 38.1334 544.442 39.5334 543.375 41.2C542.308 42.8 541.775 44.5667 541.775 46.5C541.775 48.0334 542.142 49.2334 542.875 50.1C543.675 50.9667 544.642 51.4 545.775 51.4C546.775 51.4 547.742 51.2 548.675 50.8C549.675 50.4 550.608 49.9 551.475 49.3C552.342 48.7 553.175 48.0667 553.975 47.4001C554.775 46.7334 555.475 46.1334 556.075 45.6001L556.675 46C556.008 46.6667 555.242 47.4001 554.375 48.2001C553.508 48.9334 552.575 49.6334 551.575 50.3C550.575 50.9667 549.508 51.5334 548.375 52C547.242 52.4 546.075 52.6 544.875 52.6C542.742 52.6 541.008 51.9667 539.675 50.7001C538.408 49.3667 537.775 47.5334 537.775 45.2001C537.775 43.6 538.142 42.1667 538.875 40.9L538.675 40.7C535.942 42.5667 532.942 45.0334 529.675 48.1C526.408 51.1 522.942 54.6667 519.275 58.8C517.942 60.2667 516.542 62.2001 515.075 64.6001C513.675 67.0001 512.442 69.4667 511.375 72.0001H504.875C508.475 66.2667 512.075 60.5667 515.675 54.9001C519.275 49.2334 522.975 43.4667 526.775 37.6H532.875Z" fill="#4E4138"/>
<path d="M565.776 37.6L544.676 70.9C547.676 70.4334 550.676 69.5001 553.676 68.1001C556.742 66.6334 559.709 64.8 562.576 62.6C565.509 60.3334 568.276 57.7334 570.876 54.8C573.542 51.8667 576.009 48.7 578.276 45.3L579.176 45.7001C577.109 48.8334 574.776 51.8667 572.176 54.8C569.642 57.7334 566.909 60.4 563.976 62.8C561.042 65.1334 557.876 67.1334 554.476 68.8C551.142 70.4 547.642 71.4667 543.976 72.0001C541.776 75.5334 539.276 79.0334 536.476 82.5001C533.676 86.0334 530.609 89.2001 527.276 92.0001C523.876 94.8001 520.209 97.0667 516.276 98.8C512.276 100.533 508.009 101.4 503.476 101.4C501.342 101.4 499.276 101.167 497.276 100.7C495.276 100.233 493.509 99.5001 491.976 98.5001C490.442 97.5001 489.209 96.2667 488.276 94.8C487.342 93.3334 486.876 91.6001 486.876 89.6001C486.876 88.1334 487.209 86.8001 487.876 85.6001C488.476 84.4001 489.309 83.3667 490.376 82.5001C491.442 81.7001 492.642 81.0667 493.976 80.6001C495.242 80.2001 496.542 80.0001 497.876 80.0001C498.409 80.0001 498.909 80.0334 499.376 80.1001C499.842 80.1667 500.242 80.2334 500.576 80.3V81.2001H499.876C497.142 81.2001 495.109 82.0334 493.776 83.7001C492.376 85.3667 491.676 87.2001 491.676 89.2001C491.676 93.1334 492.809 95.9334 495.076 97.6001C497.342 99.3334 500.342 100.2 504.076 100.2C508.209 100.2 512.109 99.1001 515.776 96.9001C519.376 94.7001 522.742 91.9001 525.876 88.5001C529.009 85.1001 531.942 81.3667 534.676 77.3C537.409 73.2334 539.942 69.3 542.276 65.5L559.576 37.6H565.776ZM571.976 19C572.909 19 573.676 19.3334 574.276 20C574.876 20.6 575.176 21.3667 575.176 22.3C575.176 23.2334 574.876 24.0334 574.276 24.7C573.676 25.3 572.909 25.6 571.976 25.6C571.042 25.6 570.276 25.3 569.676 24.7C569.076 24.0334 568.776 23.2334 568.776 22.3C568.776 21.3667 569.076 20.6 569.676 20C570.276 19.3334 571.042 19 571.976 19Z" fill="#4E4138"/>
<path d="M589.344 37.6C586.744 41.1334 584.244 44.5001 581.844 47.7001C579.444 50.9001 577.31 53.8334 575.444 56.5C573.577 59.1667 572.077 61.5 570.944 63.5C569.877 65.4334 569.344 66.9667 569.344 68.1001C569.344 69.1667 569.61 69.9667 570.144 70.5001C570.677 70.9667 571.377 71.2001 572.244 71.2001C573.51 71.2001 574.877 70.8001 576.344 70.0001C577.877 69.2001 579.41 68.1667 580.944 66.9C582.544 65.6334 584.077 64.2334 585.544 62.7001C587.077 61.1667 588.477 59.6667 589.744 58.2001C591.077 56.6667 592.21 55.2667 593.144 54C594.144 52.7334 594.877 51.7334 595.344 51L604.144 37.6H611.044C607.444 42.5334 604.377 46.7334 601.844 50.2001C599.377 53.6001 597.344 56.5 595.744 58.9C594.21 61.3 593.11 63.2667 592.444 64.8C591.777 66.2667 591.444 67.5667 591.444 68.7001C591.444 69.5001 591.677 70.2 592.144 70.8C592.61 71.3334 593.277 71.6001 594.144 71.6001C595.477 71.6001 597.01 71.1334 598.744 70.2001C600.477 69.2001 602.277 67.9334 604.144 66.4C606.01 64.8 607.844 63.0334 609.644 61.1C611.51 59.1 613.244 57.1334 614.844 55.2001C616.51 53.2667 618.01 51.4667 619.344 49.8C620.677 48.0667 621.71 46.6667 622.444 45.6001L623.444 45.9001C622.644 47.0334 621.577 48.5 620.244 50.3C618.91 52.0334 617.41 53.9 615.744 55.9C614.077 57.8334 612.31 59.8334 610.444 61.9001C608.577 63.9001 606.644 65.7 604.644 67.3C602.71 68.9 600.777 70.2334 598.844 71.3C596.977 72.3 595.21 72.8 593.544 72.8C591.677 72.8 590.177 72.3 589.044 71.3C587.977 70.2334 587.444 68.8334 587.444 67.1001C587.444 65.7667 587.644 64.5 588.044 63.3C588.51 62.0334 588.844 61.2334 589.044 60.9L588.844 60.7001C587.444 62.3001 585.977 63.8334 584.444 65.3C582.91 66.7667 581.377 68.0667 579.844 69.2001C578.31 70.2667 576.744 71.1334 575.144 71.8C573.61 72.4667 572.077 72.8 570.544 72.8C568.41 72.8 566.877 72.3334 565.944 71.4C565.01 70.4 564.544 69.2334 564.544 67.9C564.544 66.2334 565.01 64.4334 565.944 62.5C566.81 60.5667 568.044 58.4 569.644 56C571.244 53.6 573.144 50.9 575.344 47.9C577.61 44.9 580.077 41.4667 582.744 37.6H589.344Z" fill="#4E4138"/>
<path d="M656.477 46.2001C654.477 49.4001 652.144 52.6 649.477 55.8C646.877 58.9334 644.011 61.7667 640.877 64.3C637.744 66.8334 634.311 68.9001 630.577 70.5001C626.911 72.0334 622.977 72.8 618.777 72.8C617.177 72.8 615.677 72.6001 614.277 72.2001C612.877 71.8001 611.644 71.2 610.577 70.4C609.577 69.6 608.777 68.6 608.177 67.4C607.511 66.1334 607.177 64.6667 607.177 63C607.177 61.2667 607.744 59.7 608.877 58.3C610.011 56.9 611.544 56.2001 613.477 56.2001C614.477 56.2001 615.277 56.4667 615.877 57C616.544 57.4667 616.877 58.2001 616.877 59.2001C616.877 60.1334 616.644 60.9334 616.177 61.6C615.711 62.2667 615.011 62.6 614.077 62.6C613.344 62.6 612.744 62.4 612.277 62C611.877 61.6 611.611 61.1 611.477 60.5C610.744 60.9 610.244 61.5 609.977 62.3C609.711 63.0334 609.577 63.8001 609.577 64.6001C609.577 66.9334 610.444 68.7 612.177 69.9C613.977 71.0334 615.977 71.6001 618.177 71.6001C619.577 71.6001 620.777 71.3334 621.777 70.8C622.844 70.2 623.711 69.4667 624.377 68.6001C625.111 67.6667 625.644 66.6 625.977 65.4C626.311 64.2 626.477 63 626.477 61.8C626.477 60.5334 626.244 59.2334 625.777 57.9001C625.377 56.5001 624.911 55.1334 624.377 53.8C623.844 52.4667 623.344 51.1667 622.877 49.9C622.411 48.5667 622.177 47.3334 622.177 46.2001C622.177 44.7334 622.477 43.4334 623.077 42.3C623.677 41.1 624.477 40.1 625.477 39.3C626.544 38.5 627.744 37.9 629.077 37.5C630.411 37.0334 631.811 36.8 633.277 36.8C635.944 36.8 638.111 37.4 639.777 38.6C641.444 39.7334 642.277 41.2667 642.277 43.2C642.277 44.9334 641.611 46.2 640.277 47C639.011 47.8 637.577 48.2001 635.977 48.2001C636.377 47.4667 636.711 46.6001 636.977 45.6001C637.311 44.5334 637.477 43.5667 637.477 42.7001C637.477 41.3667 637.044 40.2667 636.177 39.4001C635.377 38.4667 634.211 38 632.677 38C630.744 38 629.311 38.6001 628.377 39.8C627.444 40.9334 626.977 42.3334 626.977 44C626.977 45.4667 627.211 46.8667 627.677 48.2001C628.211 49.5334 628.811 50.8667 629.477 52.2001C630.077 53.5334 630.611 54.9 631.077 56.3C631.611 57.7 631.877 59.2667 631.877 61C631.877 62.2667 631.577 63.5001 630.977 64.7001C630.444 65.8334 629.711 66.9 628.777 67.9C627.844 68.8334 626.777 69.6334 625.577 70.3C624.444 70.9667 623.277 71.4001 622.077 71.6001L622.277 71.8C625.877 71.4 629.311 70.3667 632.577 68.7001C635.844 66.9667 638.877 64.9 641.677 62.5C644.544 60.0334 647.177 57.3667 649.577 54.5C651.977 51.5667 654.077 48.7001 655.877 45.9001L656.477 46.2001Z" fill="#4E4138"/>
</svg>
