<svg width="419" height="25" viewBox="0 0 419 25" fill="none" xmlns="http://www.w3.org/2000/svg">
<path d="M6.82121 25C5.56243 25 4.41139 24.6821 3.36808 24.0463C2.33611 23.4105 1.51393 22.559 0.901557 21.4918C0.300519 20.4133 0 19.2155 0 17.8985L0.034021 7.01635C0.034021 5.72207 0.32887 4.55268 0.918567 3.50817C1.50826 2.45232 2.3191 1.60649 3.35107 0.970708C4.39438 0.323569 5.55109 0 6.82121 0C8.11401 0 9.26505 0.312216 10.2743 0.936648C11.295 1.56108 12.1058 2.4069 12.7068 3.47411C13.3192 4.52997 13.6254 5.71072 13.6254 7.01635V8.61717C13.6254 8.70799 13.5801 8.75341 13.4893 8.75341H9.57691C9.48619 8.75341 9.44083 8.70799 9.44083 8.61717V7.01635C9.44083 6.24432 9.19134 5.58015 8.69237 5.02384C8.19339 4.46753 7.56967 4.18937 6.82121 4.18937C5.99337 4.18937 5.35831 4.47321 4.91604 5.04087C4.47376 5.60854 4.25263 6.26703 4.25263 7.01635V17.8985C4.25263 18.75 4.50211 19.4482 5.00109 19.9932C5.50006 20.5268 6.10677 20.7936 6.82121 20.7936C7.56967 20.7936 8.19339 20.4984 8.69237 19.908C9.19134 19.3063 9.44083 18.6365 9.44083 17.8985V16.2807C9.44083 16.1898 9.48619 16.1444 9.57691 16.1444H13.5234C13.6141 16.1444 13.6594 16.1898 13.6594 16.2807V17.8985C13.6594 19.2041 13.3532 20.3962 12.7409 21.4748C12.1171 22.542 11.295 23.3992 10.2743 24.0463C9.25371 24.6821 8.10267 25 6.82121 25Z" fill="white"/>
<path d="M25.6022 25C24.3661 25 23.2264 24.6821 22.1831 24.0463C21.1511 23.4105 20.3176 22.5647 19.6825 21.5089C19.0588 20.4416 18.7469 19.2723 18.7469 18.0007L18.781 6.94823C18.781 5.65395 19.0928 4.49024 19.7165 3.45708C20.3289 2.41258 21.1568 1.57811 22.2001 0.953678C23.2434 0.317893 24.3774 0 25.6022 0C26.8723 0 28.012 0.312216 29.0213 0.936648C30.0419 1.56108 30.8584 2.40123 31.4708 3.45708C32.0945 4.50159 32.4064 5.6653 32.4064 6.94823L32.4404 18.0007C32.4404 19.2723 32.1342 20.436 31.5218 21.4918C30.8981 22.559 30.0703 23.4105 29.0383 24.0463C28.0063 24.6821 26.8609 25 25.6022 25ZM25.6022 20.7936C26.3053 20.7936 26.9176 20.5098 27.4393 19.9421C27.961 19.3631 28.2218 18.7159 28.2218 18.0007L28.1878 6.94823C28.1878 6.1762 27.9439 5.52339 27.4563 4.98978C26.9687 4.45618 26.3506 4.18937 25.6022 4.18937C24.8877 4.18937 24.2754 4.4505 23.765 4.97275C23.2547 5.495 22.9996 6.1535 22.9996 6.94823V18.0007C22.9996 18.7614 23.2547 19.4198 23.765 19.9762C24.2754 20.5211 24.8877 20.7936 25.6022 20.7936Z" fill="white"/>
<path d="M42.1207 24.6594H38.1743C38.0836 24.6594 38.0382 24.6026 38.0382 24.4891L38.1063 0.527929C38.1063 0.437103 38.1516 0.391689 38.2423 0.391689H42.495C42.5857 0.391689 42.6651 0.437103 42.7331 0.527929L45.9141 5.12602L49.078 0.527929C49.1461 0.437103 49.2311 0.391689 49.3332 0.391689H53.6028C53.7049 0.391689 53.7559 0.437103 53.7559 0.527929L53.824 24.4891C53.824 24.6026 53.7786 24.6594 53.6879 24.6594H49.7414C49.6507 24.6594 49.6054 24.6026 49.6054 24.4891L49.5713 6.69278L45.9141 12.0061L42.2908 6.69278L42.2568 24.4891C42.2568 24.6026 42.2115 24.6594 42.1207 24.6594Z" fill="white"/>
<path d="M63.7935 24.6594H59.847C59.7563 24.6594 59.711 24.6026 59.711 24.4891L59.779 0.527929C59.779 0.437103 59.8244 0.391689 59.9151 0.391689H64.1677C64.2584 0.391689 64.3378 0.437103 64.4058 0.527929L67.5868 5.12602L70.7508 0.527929C70.8188 0.437103 70.9039 0.391689 71.0059 0.391689H75.2756C75.3776 0.391689 75.4287 0.437103 75.4287 0.527929L75.4967 24.4891C75.4967 24.6026 75.4513 24.6594 75.3606 24.6594H71.4142C71.3235 24.6594 71.2781 24.6026 71.2781 24.4891L71.2441 6.69278L67.5868 12.0061L63.9636 6.69278L63.9296 24.4891C63.9296 24.6026 63.8842 24.6594 63.7935 24.6594Z" fill="white"/>
<path d="M87.7967 25C86.5719 25 85.4379 24.6821 84.3946 24.0463C83.3512 23.4105 82.5177 22.559 81.894 21.4918C81.2816 20.4133 80.9754 19.2382 80.9754 17.9666L81.0435 0.527929C81.0435 0.437103 81.0888 0.391689 81.1796 0.391689H85.092C85.1827 0.391689 85.2281 0.437103 85.2281 0.527929V17.9666C85.2281 18.75 85.4776 19.4198 85.9765 19.9762C86.4755 20.5211 87.0822 20.7936 87.7967 20.7936C88.5451 20.7936 89.1688 20.5211 89.6678 19.9762C90.1668 19.4198 90.4163 18.75 90.4163 17.9666V0.527929C90.4163 0.437103 90.4616 0.391689 90.5524 0.391689H94.4648C94.5555 0.391689 94.6009 0.437103 94.6009 0.527929L94.6689 17.9666C94.6689 19.2495 94.3627 20.4303 93.7503 21.5089C93.1266 22.5761 92.2988 23.4276 91.2668 24.0634C90.2348 24.6878 89.0781 25 87.7967 25Z" fill="white"/>
<path d="M104.162 24.6594H100.675C100.494 24.6594 100.403 24.5799 100.403 24.421L100.369 0.664169C100.369 0.482516 100.46 0.391689 100.641 0.391689H103.788L109.674 14.1349L109.503 0.664169C109.503 0.482516 109.605 0.391689 109.81 0.391689H113.263C113.399 0.391689 113.467 0.482516 113.467 0.664169L113.501 24.455C113.501 24.5913 113.444 24.6594 113.331 24.6594H110.269L104.23 11.8188L104.485 24.3869C104.485 24.5686 104.378 24.6594 104.162 24.6594Z" fill="white"/>
<path d="M123.606 24.6594H119.66C119.547 24.6594 119.49 24.6026 119.49 24.4891L119.524 0.527929C119.524 0.437103 119.569 0.391689 119.66 0.391689H123.572C123.663 0.391689 123.709 0.437103 123.709 0.527929L123.743 24.4891C123.743 24.6026 123.697 24.6594 123.606 24.6594Z" fill="white"/>
<path d="M137.199 24.6594H133.27C133.168 24.6594 133.117 24.6026 133.117 24.4891V4.59809H128.592C128.479 4.59809 128.422 4.54133 128.422 4.42779L128.456 0.527929C128.456 0.437103 128.501 0.391689 128.592 0.391689H141.826C141.951 0.391689 142.013 0.437103 142.013 0.527929V4.42779C142.013 4.54133 141.968 4.59809 141.877 4.59809H137.301L137.335 24.4891C137.335 24.6026 137.29 24.6594 137.199 24.6594Z" fill="white"/>
<path d="M153.939 24.6594H149.941C149.862 24.6594 149.822 24.614 149.822 24.5232L149.856 14.6117L145.196 0.527929C145.173 0.437103 145.207 0.391689 145.298 0.391689H149.176C149.289 0.391689 149.357 0.437103 149.38 0.527929L151.949 9.91144L154.568 0.527929C154.591 0.437103 154.648 0.391689 154.738 0.391689H158.651C158.742 0.391689 158.776 0.437103 158.753 0.527929L154.041 14.4755L154.075 24.5232C154.075 24.614 154.03 24.6594 153.939 24.6594Z" fill="white"/>
<path d="M181.55 25C180.314 25 179.174 24.6821 178.131 24.0463C177.099 23.4105 176.271 22.5647 175.647 21.5089C175.035 20.4416 174.728 19.2723 174.728 18.0007V16.3999C174.728 16.275 174.785 16.2125 174.899 16.2125H178.811C178.902 16.2125 178.947 16.275 178.947 16.3999V18.0007C178.947 18.7614 179.202 19.4198 179.713 19.9762C180.223 20.5211 180.835 20.7936 181.55 20.7936C182.275 20.7936 182.894 20.5154 183.404 19.9591C183.914 19.3915 184.169 18.7386 184.169 18.0007C184.169 17.1492 183.614 16.4055 182.502 15.7698C182.321 15.6562 182.083 15.52 181.788 15.361C181.504 15.1907 181.164 14.9977 180.767 14.782C180.37 14.5663 179.985 14.3563 179.611 14.1519C179.236 13.9362 178.873 13.7318 178.522 13.5388C177.252 12.7895 176.305 11.8529 175.681 10.7289C175.069 9.59355 174.763 8.32198 174.763 6.91417C174.763 5.61989 175.08 4.4505 175.715 3.40599C176.35 2.37284 177.178 1.5554 178.199 0.953678C179.231 0.340599 180.348 0.0340599 181.55 0.0340599C182.786 0.0340599 183.92 0.340599 184.952 0.953678C185.984 1.57811 186.806 2.4069 187.418 3.44005C188.042 4.47321 188.354 5.63124 188.354 6.91417V9.7752C188.354 9.86603 188.309 9.91144 188.218 9.91144H184.305C184.215 9.91144 184.169 9.86603 184.169 9.7752L184.135 6.91417C184.135 6.09673 183.88 5.43256 183.37 4.92166C182.86 4.41076 182.253 4.15531 181.55 4.15531C180.835 4.15531 180.223 4.42779 179.713 4.97275C179.202 5.51771 178.947 6.16485 178.947 6.91417C178.947 7.67484 179.106 8.31063 179.423 8.82153C179.752 9.33242 180.348 9.82062 181.209 10.2861C181.3 10.3315 181.51 10.445 181.839 10.6267C182.168 10.8084 182.531 11.0127 182.928 11.2398C183.336 11.4555 183.704 11.6542 184.033 11.8358C184.362 12.0061 184.561 12.1083 184.629 12.1424C185.785 12.7895 186.698 13.5842 187.367 14.5266C188.048 15.4689 188.388 16.6269 188.388 18.0007C188.388 19.329 188.082 20.5211 187.469 21.577C186.846 22.6328 186.018 23.4673 184.986 24.0804C183.954 24.6935 182.808 25 181.55 25Z" fill="white"/>
<path d="M200.178 25C198.919 25 197.768 24.6821 196.724 24.0463C195.692 23.4105 194.87 22.559 194.258 21.4918C193.657 20.4133 193.356 19.2155 193.356 17.8985L193.39 7.01635C193.39 5.72207 193.685 4.55268 194.275 3.50817C194.865 2.45232 195.675 1.60649 196.707 0.970708C197.751 0.323569 198.907 0 200.178 0C201.47 0 202.621 0.312216 203.631 0.936648C204.651 1.56108 205.462 2.4069 206.063 3.47411C206.676 4.52997 206.982 5.71072 206.982 7.01635V8.61717C206.982 8.70799 206.936 8.75341 206.846 8.75341H202.933C202.843 8.75341 202.797 8.70799 202.797 8.61717V7.01635C202.797 6.24432 202.548 5.58015 202.049 5.02384C201.55 4.46753 200.926 4.18937 200.178 4.18937C199.35 4.18937 198.715 4.47321 198.272 5.04087C197.83 5.60854 197.609 6.26703 197.609 7.01635V17.8985C197.609 18.75 197.858 19.4482 198.357 19.9932C198.856 20.5268 199.463 20.7936 200.178 20.7936C200.926 20.7936 201.55 20.4984 202.049 19.908C202.548 19.3063 202.797 18.6365 202.797 17.8985V16.2807C202.797 16.1898 202.843 16.1444 202.933 16.1444H206.88C206.97 16.1444 207.016 16.1898 207.016 16.2807V17.8985C207.016 19.2041 206.71 20.3962 206.097 21.4748C205.474 22.542 204.651 23.3992 203.631 24.0463C202.61 24.6821 201.459 25 200.178 25Z" fill="white"/>
<path d="M216.628 24.6594H212.682C212.568 24.6594 212.512 24.6026 212.512 24.4891L212.546 0.527929C212.546 0.437103 212.591 0.391689 212.682 0.391689H216.594C216.685 0.391689 216.73 0.437103 216.73 0.527929L216.764 24.4891C216.764 24.6026 216.719 24.6594 216.628 24.6594Z" fill="white"/>
<path d="M234.184 24.6594H222.923C222.833 24.6594 222.787 24.6026 222.787 24.4891L222.821 0.527929C222.821 0.437103 222.867 0.391689 222.957 0.391689H234.15C234.241 0.391689 234.286 0.448456 234.286 0.561989V4.46185C234.286 4.55268 234.241 4.59809 234.15 4.59809H227.006V10.0477H234.15C234.241 10.0477 234.286 10.0931 234.286 10.1839L234.32 14.1349C234.32 14.2257 234.275 14.2711 234.184 14.2711H227.006V20.3678H234.184C234.275 20.3678 234.32 20.4246 234.32 20.5381V24.5232C234.32 24.614 234.275 24.6594 234.184 24.6594Z" fill="white"/>
<path d="M244.171 24.6594H240.684C240.502 24.6594 240.411 24.5799 240.411 24.421L240.377 0.664169C240.377 0.482516 240.468 0.391689 240.65 0.391689H243.797L249.682 14.1349L249.512 0.664169C249.512 0.482516 249.614 0.391689 249.818 0.391689H253.271C253.408 0.391689 253.476 0.482516 253.476 0.664169L253.51 24.455C253.51 24.5913 253.453 24.6594 253.339 24.6594H250.278L244.239 11.8188L244.494 24.3869C244.494 24.5686 244.386 24.6594 244.171 24.6594Z" fill="white"/>
<path d="M265.912 25C264.653 25 263.502 24.6821 262.458 24.0463C261.426 23.4105 260.604 22.559 259.992 21.4918C259.391 20.4133 259.09 19.2155 259.09 17.8985L259.124 7.01635C259.124 5.72207 259.419 4.55268 260.009 3.50817C260.599 2.45232 261.409 1.60649 262.441 0.970708C263.485 0.323569 264.641 0 265.912 0C267.204 0 268.355 0.312216 269.365 0.936648C270.385 1.56108 271.196 2.4069 271.797 3.47411C272.41 4.52997 272.716 5.71072 272.716 7.01635V8.61717C272.716 8.70799 272.67 8.75341 272.58 8.75341H268.667C268.577 8.75341 268.531 8.70799 268.531 8.61717V7.01635C268.531 6.24432 268.282 5.58015 267.783 5.02384C267.284 4.46753 266.66 4.18937 265.912 4.18937C265.084 4.18937 264.449 4.47321 264.006 5.04087C263.564 5.60854 263.343 6.26703 263.343 7.01635V17.8985C263.343 18.75 263.593 19.4482 264.091 19.9932C264.59 20.5268 265.197 20.7936 265.912 20.7936C266.66 20.7936 267.284 20.4984 267.783 19.908C268.282 19.3063 268.531 18.6365 268.531 17.8985V16.2807C268.531 16.1898 268.577 16.1444 268.667 16.1444H272.614C272.704 16.1444 272.75 16.1898 272.75 16.2807V17.8985C272.75 19.2041 272.444 20.3962 271.831 21.4748C271.208 22.542 270.385 23.3992 269.365 24.0463C268.344 24.6821 267.193 25 265.912 25Z" fill="white"/>
<path d="M289.643 24.6594H278.382C278.291 24.6594 278.246 24.6026 278.246 24.4891L278.28 0.527929C278.28 0.437103 278.325 0.391689 278.416 0.391689H289.609C289.699 0.391689 289.745 0.448456 289.745 0.561989V4.46185C289.745 4.55268 289.699 4.59809 289.609 4.59809H282.464V10.0477H289.609C289.699 10.0477 289.745 10.0931 289.745 10.1839L289.779 14.1349C289.779 14.2257 289.733 14.2711 289.643 14.2711H282.464V20.3678H289.643C289.733 20.3678 289.779 20.4246 289.779 20.5381V24.5232C289.779 24.614 289.733 24.6594 289.643 24.6594Z" fill="white"/>
<path d="M311.929 24.6594H307.983C307.892 24.6594 307.847 24.6026 307.847 24.4891L307.915 0.527929C307.915 0.437103 307.96 0.391689 308.051 0.391689H312.303C312.394 0.391689 312.473 0.437103 312.541 0.527929L315.722 5.12602L318.886 0.527929C318.954 0.437103 319.039 0.391689 319.142 0.391689H323.411C323.513 0.391689 323.564 0.437103 323.564 0.527929L323.632 24.4891C323.632 24.6026 323.587 24.6594 323.496 24.6594H319.55C319.459 24.6594 319.414 24.6026 319.414 24.4891L319.38 6.69278L315.722 12.0061L312.099 6.69278L312.065 24.4891C312.065 24.6026 312.02 24.6594 311.929 24.6594Z" fill="white"/>
<path d="M335.932 25C334.708 25 333.573 24.6821 332.53 24.0463C331.487 23.4105 330.653 22.559 330.03 21.4918C329.417 20.4133 329.111 19.2382 329.111 17.9666L329.179 0.527929C329.179 0.437103 329.224 0.391689 329.315 0.391689H333.228C333.318 0.391689 333.364 0.437103 333.364 0.527929V17.9666C333.364 18.75 333.613 19.4198 334.112 19.9762C334.611 20.5211 335.218 20.7936 335.932 20.7936C336.681 20.7936 337.304 20.5211 337.803 19.9762C338.302 19.4198 338.552 18.75 338.552 17.9666V0.527929C338.552 0.437103 338.597 0.391689 338.688 0.391689H342.6C342.691 0.391689 342.736 0.437103 342.736 0.527929L342.805 17.9666C342.805 19.2495 342.498 20.4303 341.886 21.5089C341.262 22.5761 340.434 23.4276 339.402 24.0634C338.37 24.6878 337.214 25 335.932 25Z" fill="white"/>
<path d="M354.424 25C353.188 25 352.048 24.6821 351.005 24.0463C349.973 23.4105 349.145 22.5647 348.521 21.5089C347.909 20.4416 347.603 19.2723 347.603 18.0007V16.3999C347.603 16.275 347.66 16.2125 347.773 16.2125H351.685C351.776 16.2125 351.821 16.275 351.821 16.3999V18.0007C351.821 18.7614 352.077 19.4198 352.587 19.9762C353.097 20.5211 353.71 20.7936 354.424 20.7936C355.15 20.7936 355.768 20.5154 356.278 19.9591C356.789 19.3915 357.044 18.7386 357.044 18.0007C357.044 17.1492 356.488 16.4055 355.377 15.7698C355.195 15.6562 354.957 15.52 354.662 15.361C354.379 15.1907 354.038 14.9977 353.642 14.782C353.245 14.5663 352.859 14.3563 352.485 14.1519C352.111 13.9362 351.748 13.7318 351.396 13.5388C350.126 12.7895 349.179 11.8529 348.555 10.7289C347.943 9.59355 347.637 8.32198 347.637 6.91417C347.637 5.61989 347.954 4.4505 348.589 3.40599C349.225 2.37284 350.052 1.5554 351.073 0.953678C352.105 0.340599 353.222 0.0340599 354.424 0.0340599C355.66 0.0340599 356.794 0.340599 357.826 0.953678C358.858 1.57811 359.68 2.4069 360.293 3.44005C360.916 4.47321 361.228 5.63124 361.228 6.91417V9.7752C361.228 9.86603 361.183 9.91144 361.092 9.91144H357.18C357.089 9.91144 357.044 9.86603 357.044 9.7752L357.01 6.91417C357.01 6.09673 356.754 5.43256 356.244 4.92166C355.734 4.41076 355.127 4.15531 354.424 4.15531C353.71 4.15531 353.097 4.42779 352.587 4.97275C352.077 5.51771 351.821 6.16485 351.821 6.91417C351.821 7.67484 351.98 8.31063 352.298 8.82153C352.627 9.33242 353.222 9.82062 354.084 10.2861C354.175 10.3315 354.384 10.445 354.713 10.6267C355.042 10.8084 355.405 11.0127 355.802 11.2398C356.21 11.4555 356.579 11.6542 356.908 11.8358C357.236 12.0061 357.435 12.1083 357.503 12.1424C358.66 12.7895 359.573 13.5842 360.242 14.5266C360.922 15.4689 361.262 16.6269 361.262 18.0007C361.262 19.329 360.956 20.5211 360.344 21.577C359.72 22.6328 358.892 23.4673 357.86 24.0804C356.828 24.6935 355.683 25 354.424 25Z" fill="white"/>
<path d="M378.036 24.6594H366.775C366.684 24.6594 366.639 24.6026 366.639 24.4891L366.673 0.527929C366.673 0.437103 366.718 0.391689 366.809 0.391689H378.002C378.093 0.391689 378.138 0.448456 378.138 0.561989V4.46185C378.138 4.55268 378.093 4.59809 378.002 4.59809H370.858V10.0477H378.002C378.093 10.0477 378.138 10.0931 378.138 10.1839L378.172 14.1349C378.172 14.2257 378.127 14.2711 378.036 14.2711H370.858V20.3678H378.036C378.127 20.3678 378.172 20.4246 378.172 20.5381V24.5232C378.172 24.614 378.127 24.6594 378.036 24.6594Z" fill="white"/>
<path d="M390.642 25C389.417 25 388.283 24.6821 387.24 24.0463C386.197 23.4105 385.363 22.559 384.739 21.4918C384.127 20.4133 383.821 19.2382 383.821 17.9666L383.889 0.527929C383.889 0.437103 383.934 0.391689 384.025 0.391689H387.937C388.028 0.391689 388.074 0.437103 388.074 0.527929V17.9666C388.074 18.75 388.323 19.4198 388.822 19.9762C389.321 20.5211 389.928 20.7936 390.642 20.7936C391.391 20.7936 392.014 20.5211 392.513 19.9762C393.012 19.4198 393.262 18.75 393.262 17.9666V0.527929C393.262 0.437103 393.307 0.391689 393.398 0.391689H397.31C397.401 0.391689 397.446 0.437103 397.446 0.527929L397.514 17.9666C397.514 19.2495 397.208 20.4303 396.596 21.5089C395.972 22.5761 395.144 23.4276 394.112 24.0634C393.08 24.6878 391.924 25 390.642 25Z" fill="white"/>
<path d="M407.297 24.6594H403.35C403.26 24.6594 403.214 24.6026 403.214 24.4891L403.282 0.527929C403.282 0.437103 403.328 0.391689 403.418 0.391689H407.671C407.762 0.391689 407.841 0.437103 407.909 0.527929L411.09 5.12602L414.254 0.527929C414.322 0.437103 414.407 0.391689 414.509 0.391689H418.779C418.881 0.391689 418.932 0.437103 418.932 0.527929L419 24.4891C419 24.6026 418.955 24.6594 418.864 24.6594H414.917C414.827 24.6594 414.781 24.6026 414.781 24.4891L414.747 6.69278L411.09 12.0061L407.467 6.69278L407.433 24.4891C407.433 24.6026 407.387 24.6594 407.297 24.6594Z" fill="white"/>
</svg>
