<svg width="840" height="109" viewBox="0 0 840 109" fill="none" xmlns="http://www.w3.org/2000/svg">
<path d="M42.3002 3.14999C71.4002 3.14999 94.8002 26.7 94.8002 55.65C94.8002 84.6 71.4002 108.15 42.3002 108.15H0.450195V3.14999H42.3002ZM33.0002 107.1C61.3502 107.1 84.3002 84 84.3002 55.65C84.3002 27.15 61.3502 4.2 33.0002 4.2H10.8002V107.1H33.0002Z" fill="black"/>
<path d="M206.366 42C213.416 68.25 199.166 95.25 174.266 104.7C172.616 105.3 170.966 105.75 169.316 106.35C167.516 106.8 165.866 107.1 164.216 107.4C137.966 111.75 112.016 95.4 105.116 69.15C98.0662 42.9 112.166 15.9 137.216 6.59999C138.716 6 140.366 5.4 142.166 4.95C143.816 4.49999 145.616 4.05 147.266 3.74999C173.516 -0.450007 199.316 15.75 206.366 42ZM169.016 105.3C192.566 99 202.916 69.3 196.316 44.7C189.716 20.25 166.016 -0.450006 142.466 5.84999C118.766 12.3 108.566 42 115.166 66.45C121.766 91.05 145.466 111.6 169.016 105.3Z" fill="black"/>
<path d="M357.222 3.14999L322.572 100.2C322.722 100.2 322.872 100.2 322.872 100.2V108.15C304.572 108.15 298.722 87.9 292.722 66.45C290.472 58.65 288.222 51 285.372 43.95L259.872 108H249.372L207.522 3.14999H217.872L259.422 106.8L284.922 42.6C279.072 28.8 270.672 18.15 255.222 18.15V10.35C272.172 10.35 282.072 19.8 288.822 32.55L296.172 14.25H297.222L289.422 33.75C294.072 43.05 297.222 53.85 300.222 64.2C305.472 82.8 310.122 99 321.522 100.05L356.172 3.14999H357.222Z" fill="black"/>
<path d="M447.204 3.14999H448.254V108H447.354V108.15C420.204 108.15 411.804 82.5 403.854 57.75C396.504 35.55 389.754 14.55 370.404 9.75V108H369.354V9.6C367.104 9.15 364.554 8.85 362.004 8.85V0.899994C393.504 0.899994 402.954 29.85 411.204 55.35C419.004 79.35 425.754 100.05 447.204 100.2V3.14999Z" fill="black"/>
<path d="M607.417 3.14999L572.767 100.2C572.917 100.2 573.067 100.2 573.067 100.2V108.15C554.767 108.15 548.917 87.9 542.917 66.45C540.667 58.65 538.417 51 535.567 43.95L510.067 108H499.567L457.717 3.14999H468.067L509.617 106.8L535.117 42.6C529.267 28.8 520.867 18.15 505.417 18.15V10.35C522.367 10.35 532.267 19.8 539.017 32.55L546.367 14.25H547.417L539.617 33.75C544.267 43.05 547.417 53.85 550.417 64.2C555.667 82.8 560.317 99 571.717 100.05L606.367 3.14999H607.417Z" fill="black"/>
<path d="M627.349 108H616.999V3.14999H627.349V108Z" fill="black"/>
<path d="M725.671 3.14999H726.721V108H725.821V108.15C698.671 108.15 690.271 82.5 682.321 57.75C674.971 35.55 668.221 14.55 648.871 9.75V108H647.821V9.6C645.571 9.15 643.021 8.85 640.471 8.85V0.899994C671.971 0.899994 681.421 29.85 689.671 55.35C697.471 79.35 704.221 100.05 725.671 100.2V3.14999Z" fill="black"/>
<path d="M786.734 3.14999C815.834 3.14999 839.234 26.7 839.234 55.65C839.234 84.6 815.834 108.15 786.734 108.15H744.884V3.14999H786.734ZM777.434 107.1C805.784 107.1 828.734 84 828.734 55.65C828.734 27.15 805.784 4.2 777.434 4.2H755.234V107.1H777.434Z" fill="black"/>
</svg>
