<svg width="165" height="33" viewBox="0 0 165 33" fill="none" xmlns="http://www.w3.org/2000/svg">
<path d="M2.99 30.0636H0.5V9.06357H2.99V18.7236H12.74V9.06357H15.23V30.0636H12.74V19.0236H2.99V30.0636Z" fill="#2D521E"/>
<path d="M17.9316 20.0736C17.9316 16.4336 18.8116 13.6736 20.5716 11.7936C22.3516 9.89357 24.6316 8.94357 27.4116 8.94357C30.1916 8.94357 32.4016 9.76357 34.0416 11.4036C35.7016 13.0436 36.5316 15.6636 36.5316 19.2636C36.5316 22.8636 35.6516 25.5836 33.8916 27.4236C32.1316 29.2636 29.7816 30.1836 26.8416 30.1836C24.3016 30.1836 22.2216 29.4536 20.6016 27.9936C19.7616 27.2336 19.1016 26.1836 18.6216 24.8436C18.1616 23.4836 17.9316 21.8936 17.9316 20.0736ZM27.3216 9.24358C25.3016 9.24358 23.6416 10.1436 22.3416 11.9436C21.0616 13.7436 20.4216 16.3836 20.4216 19.8636C20.4216 23.3436 21.0316 25.8836 22.2516 27.4836C23.4716 29.0836 25.0916 29.8836 27.1116 29.8836C29.1516 29.8836 30.8116 28.9836 32.0916 27.1836C33.3916 25.3636 34.0416 22.7336 34.0416 19.2936C34.0416 15.8336 33.4216 13.2936 32.1816 11.6736C30.9616 10.0536 29.3416 9.24358 27.3216 9.24358Z" fill="#2D521E"/>
<path d="M51.2305 30.0636H39.8305V9.06357H42.3205V29.7636H51.2305V30.0636Z" fill="#2D521E"/>
<path d="M54.2445 9.36357V9.06357H59.5845V9.36357H58.1145V29.7636H59.5845V30.0636H54.2445V29.7636H55.6245V9.36357H54.2445Z" fill="#2D521E"/>
<path d="M102.055 9.09357C102.935 9.05357 103.795 9.03357 104.635 9.03357C105.495 9.03357 106.395 9.12357 107.335 9.30357C108.295 9.48357 109.235 9.82357 110.155 10.3236C111.095 10.8036 111.885 11.4336 112.525 12.2136C113.185 12.9736 113.715 13.9836 114.115 15.2436C114.515 16.5036 114.715 18.0336 114.715 19.8336C114.715 21.6336 114.415 23.2536 113.815 24.6936C113.235 26.1136 112.435 27.2036 111.415 27.9636C109.435 29.4436 107.045 30.1836 104.245 30.1836C103.265 30.1836 102.235 30.1436 101.155 30.0636H99.6547V9.09357H102.055ZM102.145 29.8236C102.565 29.8636 103.095 29.8836 103.735 29.8836C104.375 29.8836 104.855 29.8736 105.175 29.8536C105.495 29.8336 105.935 29.7536 106.495 29.6136C107.055 29.4536 107.575 29.2436 108.055 28.9836C108.535 28.7236 109.035 28.3436 109.555 27.8436C110.095 27.3236 110.555 26.7136 110.935 26.0136C111.795 24.3736 112.225 22.2336 112.225 19.5936C112.225 17.7136 111.995 16.0936 111.535 14.7336C111.075 13.3536 110.545 12.3336 109.945 11.6736C109.365 11.0136 108.655 10.4936 107.815 10.1136C106.975 9.71357 106.305 9.48357 105.805 9.42357C105.305 9.36357 104.725 9.33357 104.065 9.33357C103.405 9.33357 102.765 9.36357 102.145 9.42357V29.8236Z" fill="#2D521E"/>
<path d="M116.276 30.0636H115.916L124.886 9.06357L125.216 8.91357L132.776 30.0636H130.226L127.886 23.4636H119.126L116.276 30.0636ZM123.956 12.3036L119.246 23.1636H127.796L123.956 12.3036Z" fill="#2D521E"/>
<path d="M135.508 9.36357V9.06357H147.748V9.36357L137.158 29.7636H146.188C146.768 29.7636 147.298 29.6636 147.778 29.4636C148.258 29.2636 148.578 28.9736 148.738 28.5936L148.978 28.7136C148.938 28.8136 148.868 28.9436 148.768 29.1036C148.688 29.2436 148.418 29.4436 147.958 29.7036C147.498 29.9436 146.938 30.0636 146.278 30.0636H134.728V29.7636L145.258 9.36357H135.508Z" fill="#2D521E"/>
<path d="M164.065 9.06357V9.36357H154.615V18.3636H163.375V18.6636H154.615V29.7636H164.725V30.0636H152.125V9.06357H164.065Z" fill="#2D521E"/>
<path d="M79.7379 32.0635H81.663V12.5918" stroke="#2D521E" stroke-linecap="round"/>
<path d="M79.7379 32.0637H77.8128V12.4973" stroke="#2D521E" stroke-linecap="round"/>
<path d="M88.6374 22.2175L79.8957 10.0043C81.7261 9.52042 86.037 9.4047 88.6374 12.813C91.2379 16.2214 89.721 20.5029 88.6374 22.2175Z" stroke="#2D521E" stroke-linecap="round"/>
<path d="M94.0717 5.01205L79.8461 9.83002C79.9147 7.93797 81.0559 3.77925 85.0726 2.28076C89.0893 0.782267 92.7456 3.47725 94.0717 5.01205Z" stroke="#2D521E" stroke-linecap="round"/>
<path d="M70.8513 22.1995L79.5931 9.98625C77.7627 9.50235 73.4518 9.38664 70.8513 12.795C68.2509 16.2033 69.7678 20.4848 70.8513 22.1995Z" stroke="#2D521E" stroke-linecap="round"/>
<path d="M65.417 4.99398L79.6427 9.81195C79.5741 7.9199 78.4329 3.76118 74.4162 2.26269C70.3995 0.764201 66.7432 3.45918 65.417 4.99398Z" stroke="#2D521E" stroke-linecap="round"/>
<path d="M82.736 11.519C83.7354 11.5716 85.9992 12.0492 87.0596 13.5388C88.1199 15.0284 88.364 17.5468 88.3535 18.6198" stroke="#2D521E" stroke-linecap="round"/>
<path d="M82.1748 7.60083C82.5296 6.66508 83.6746 4.65463 85.4165 4.09884C87.1585 3.54306 89.6314 4.07837 90.6501 4.41551" stroke="#2D521E" stroke-linecap="round"/>
<path d="M68.8215 4.896C69.6735 4.37097 71.8072 3.4765 73.5265 4.0988C75.2458 4.72111 76.8786 6.65389 77.4802 7.5425" stroke="#2D521E" stroke-linecap="round"/>
<path d="M71.2233 18.4578C71.0532 17.4716 71.0175 15.1582 72.2351 13.7942C73.4528 12.4302 75.8546 11.6344 76.9033 11.407" stroke="#2D521E" stroke-linecap="round"/>
<path d="M77.876 15.4006H79.2007" stroke="#2D521E" stroke-linecap="round"/>
<path d="M77.8759 18.6196H79.2007" stroke="#2D521E" stroke-linecap="round"/>
<path d="M77.8759 21.8386H79.2007" stroke="#2D521E" stroke-linecap="round"/>
<path d="M77.8759 24.9946H79.2007" stroke="#2D521E" stroke-linecap="round"/>
<path d="M77.8759 28.1504H79.2007" stroke="#2D521E" stroke-linecap="round"/>
<path d="M81.5999 16.9785H80.2751" stroke="#2D521E" stroke-linecap="round"/>
<path d="M81.5999 20.1975H80.2752" stroke="#2D521E" stroke-linecap="round"/>
<path d="M81.5999 23.4165H80.2752" stroke="#2D521E" stroke-linecap="round"/>
<path d="M81.5999 26.5723H80.2752" stroke="#2D521E" stroke-linecap="round"/>
<path d="M81.5999 29.7283H80.2752" stroke="#2D521E" stroke-linecap="round"/>
</svg>
