<svg width="134" height="42" viewBox="0 0 134 42" fill="none" xmlns="http://www.w3.org/2000/svg">
<g filter="url(#filter0_i_115_9295)">
<path d="M27.4535 31.3765H29.1732V42H0V40.2706L3.37795 39.8382C4.03307 39.7559 4.42204 39.5912 4.54488 39.3441C4.66771 39.0559 4.72913 38.2118 4.72913 36.8118V5.18823C4.72913 3.78823 4.66771 2.9647 4.54488 2.71765C4.42204 2.42941 4.03307 2.24412 3.37795 2.16176L0 1.72941V0H16.8283V1.72941L13.4504 2.16176C12.7953 2.24412 12.4063 2.42941 12.2835 2.71765C12.1606 2.9647 12.0992 3.78823 12.0992 5.18823V39.8382H22.1716C23.1543 39.8382 23.8504 39.8176 24.2598 39.7765C24.6693 39.6941 24.9354 39.55 25.0582 39.3441C25.222 39.0971 25.3653 38.7265 25.4882 38.2324L27.4535 31.3765Z" fill="#4D4ADF"/>
<path d="M41.532 40.2706V42H29.6785V40.2706L33.0564 39.8382C33.5068 39.7559 33.8344 39.6735 34.0391 39.5912C34.2438 39.4676 34.4281 39.2 34.5918 38.7882C34.7556 38.3765 34.9808 37.7176 35.2674 36.8118L46.9981 0H52.28L64.0721 36.8118C64.3587 37.7176 64.5839 38.3765 64.7477 38.7882C64.9115 39.2 65.0957 39.4676 65.3005 39.5912C65.5462 39.6735 65.8737 39.7559 66.2831 39.8382L69.6611 40.2706V42H52.7099V40.2706L56.0879 39.8382C56.743 39.7559 57.091 39.5912 57.132 39.3441C57.2139 39.0559 57.0296 38.2118 56.5792 36.8118L54.2454 29.1529H40.058L37.6627 36.8118C37.2533 38.2118 37.069 39.0559 37.1099 39.3441C37.1509 39.5912 37.4989 39.7559 38.154 39.8382L41.532 40.2706ZM40.795 26.9912H53.5698L47.2438 6.48529L40.795 26.9912Z" fill="#4D4ADF"/>
<path d="M98.7527 31.3765H100.472V42H71.6063V40.4559L91.5055 2.16176H79.5905C78.6488 2.16176 77.9528 2.20294 77.5024 2.28529C77.0929 2.32647 76.8268 2.47059 76.7039 2.71765C76.5811 2.92353 76.4378 3.27353 76.274 3.76765L74.3087 10.6235H72.589V0H99.8583V1.54412L79.9591 39.8382H93.4708C94.4535 39.8382 95.1496 39.8176 95.559 39.7765C95.9685 39.6941 96.2346 39.55 96.3575 39.3441C96.5212 39.0971 96.6646 38.7265 96.7874 38.2324L98.7527 31.3765Z" fill="#4D4ADF"/>
<path d="M132.28 31.3765H134V42H105.134V40.4559L125.033 2.16176H113.118C112.176 2.16176 111.48 2.20294 111.03 2.28529C110.621 2.32647 110.354 2.47059 110.232 2.71765C110.109 2.92353 109.965 3.27353 109.802 3.76765L107.836 10.6235H106.117V0H133.386V1.54412L113.487 39.8382H126.998C127.981 39.8382 128.677 39.8176 129.087 39.7765C129.496 39.6941 129.762 39.55 129.885 39.3441C130.049 39.0971 130.192 38.7265 130.315 38.2324L132.28 31.3765Z" fill="#4D4ADF"/>
</g>
<defs>
<filter id="filter0_i_115_9295" x="0" y="0" width="134" height="46" filterUnits="userSpaceOnUse" color-interpolation-filters="sRGB">
<feFlood flood-opacity="0" result="BackgroundImageFix"/>
<feBlend mode="normal" in="SourceGraphic" in2="BackgroundImageFix" result="shape"/>
<feColorMatrix in="SourceAlpha" type="matrix" values="0 0 0 0 0 0 0 0 0 0 0 0 0 0 0 0 0 0 127 0" result="hardAlpha"/>
<feOffset dy="4"/>
<feGaussianBlur stdDeviation="2"/>
<feComposite in2="hardAlpha" operator="arithmetic" k2="-1" k3="1"/>
<feColorMatrix type="matrix" values="0 0 0 0 0 0 0 0 0 0 0 0 0 0 0 0 0 0 0.25 0"/>
<feBlend mode="normal" in2="shape" result="effect1_innerShadow_115_9295"/>
</filter>
</defs>
</svg>
