<svg width="386" height="40" viewBox="0 0 386 40" fill="none" xmlns="http://www.w3.org/2000/svg">
<path d="M22.3602 40C21.1602 40 19.9736 39.6533 18.8002 38.96C17.6536 38.2933 16.1869 37.2533 14.4002 35.84C13.0669 34.7733 11.9202 33.9067 10.9602 33.24C10.0269 32.6 9.00023 32.0533 7.88023 31.6C6.7869 31.1467 5.6669 30.92 4.52023 30.92C4.12023 30.92 3.81357 30.9333 3.60023 30.96L9.56024 3.24C7.77357 3.96 6.3869 5.06667 5.40023 6.56C4.44023 8.02667 3.96023 9.82667 3.96023 11.96C3.96023 12.9467 4.05357 13.64 4.24023 14.04C4.4269 14.4133 4.52023 14.6267 4.52023 14.68C3.08023 14.68 2.00023 14.3867 1.28023 13.8C0.586901 13.1867 0.240234 12.1867 0.240234 10.8C0.240234 9.09333 0.933568 7.44 2.32023 5.84C3.73357 4.21333 5.53357 2.90667 7.72023 1.92C9.9069 0.906669 12.0936 0.400002 14.2802 0.400002C14.6536 0.400002 15.1869 0.426668 15.8802 0.480001L9.72023 29.2C10.4669 29.3867 11.2269 29.6533 12.0002 30C12.8002 30.3733 13.7602 30.8667 14.8802 31.48C16.6136 32.4133 18.0936 33.12 19.3202 33.6C20.5469 34.1067 21.8269 34.36 23.1602 34.36C24.3602 34.36 25.4802 34.1467 26.5202 33.72C26.3069 35.6667 25.8269 37.2 25.0802 38.32C24.3602 39.44 23.4536 40 22.3602 40Z" fill="#455043"/>
<path d="M20.8765 30.24C18.9032 30.24 17.3698 29.7333 16.2765 28.72C15.1832 27.68 14.6365 26.0667 14.6365 23.88C14.6365 22.04 14.9965 20.0133 15.7165 17.8C16.4365 15.5867 17.6098 13.68 19.2365 12.08C20.8632 10.4533 22.9298 9.64 25.4365 9.64C28.3698 9.64 29.8365 10.92 29.8365 13.48C29.8365 14.9733 29.4098 16.3467 28.5565 17.6C27.7032 18.8533 26.5698 19.8667 25.1565 20.64C23.7432 21.3867 22.2365 21.8133 20.6365 21.92C20.5832 22.72 20.5565 23.2533 20.5565 23.52C20.5565 24.8267 20.7832 25.72 21.2365 26.2C21.6898 26.6533 22.4232 26.88 23.4365 26.88C24.8765 26.88 26.1032 26.5467 27.1165 25.88C28.1565 25.2133 29.2898 24.2 30.5165 22.84H31.8765C28.9165 27.7733 25.2498 30.24 20.8765 30.24ZM20.9565 20C21.9432 19.9467 22.8765 19.6 23.7565 18.96C24.6632 18.32 25.3832 17.5067 25.9165 16.52C26.4765 15.5333 26.7565 14.4933 26.7565 13.4C26.7565 12.3067 26.4232 11.76 25.7565 11.76C24.7965 11.76 23.8498 12.6 22.9165 14.28C22.0098 15.96 21.3565 17.8667 20.9565 20Z" fill="#455043"/>
<path d="M34.468 30.24C33.188 30.24 32.148 29.84 31.348 29.04C30.5747 28.24 30.188 27.04 30.188 25.44C30.188 24.7733 30.2947 23.9067 30.508 22.84L32.908 11.6H31.588L31.908 10H33.228L34.428 4.48L40.348 3.68L38.988 10H41.388L41.068 11.6H38.668L36.108 23.6C36.0014 24 35.948 24.4267 35.948 24.88C35.948 25.4133 36.068 25.8 36.308 26.04C36.5747 26.2533 37.0014 26.36 37.588 26.36C38.3614 26.36 39.0814 26.04 39.748 25.4C40.4147 24.7333 40.8947 23.88 41.188 22.84H42.868C41.8814 25.72 40.6147 27.68 39.068 28.72C37.5214 29.7333 35.988 30.24 34.468 30.24Z" fill="#455043"/>
<path d="M45.7321 30.24C44.4521 30.24 43.3721 30 42.4921 29.52C41.6121 29.0133 40.9588 28.3733 40.5321 27.6C40.1054 26.8 39.8921 25.9733 39.8921 25.12C39.8921 24.24 40.1054 23.48 40.5321 22.84C40.9321 22.1733 41.4254 21.6933 42.0121 21.4C43.0521 19.5333 43.9588 17.6533 44.7321 15.76C45.5054 13.84 46.2388 11.7733 46.9321 9.56L52.8521 8.76C52.9854 12.1733 53.2121 15.8667 53.5321 19.84C53.6654 21.44 53.7321 22.6 53.7321 23.32C53.7321 24.9467 53.3188 26.28 52.4921 27.32C51.6654 28.36 50.6388 29.1067 49.4121 29.56C48.2121 30.0133 46.9854 30.24 45.7321 30.24ZM44.4521 27.08C45.4388 27.08 46.2654 26.7867 46.9321 26.2C47.5988 25.6133 47.9321 24.6667 47.9321 23.36C47.9321 22.56 47.8521 21.44 47.6921 20C47.4254 16.96 47.2521 14.92 47.1721 13.88C46.5321 15.9867 45.4521 18.5067 43.9321 21.44C44.5454 21.76 44.8521 22.2267 44.8521 22.84C44.8521 23.3467 44.6788 23.8 44.3321 24.2C44.0121 24.6 43.5988 24.8 43.0921 24.8C42.5321 24.8 42.1721 24.6267 42.0121 24.28C42.0121 25.24 42.1988 25.9467 42.5721 26.4C42.9721 26.8533 43.5988 27.08 44.4521 27.08Z" fill="#455043"/>
<path d="M66.6684 2.52C64.6417 3.18667 63.0684 4.29333 61.9484 5.84C60.855 7.36 60.3084 9.25333 60.3084 11.52C60.3084 12.5333 60.4017 13.2267 60.5884 13.6C60.775 13.9733 60.8684 14.2 60.8684 14.28C58.015 14.28 56.5884 13.0667 56.5884 10.64C56.5884 8.98667 57.215 7.33334 58.4684 5.68C59.7484 4 61.375 2.64 63.3484 1.6C65.3484 0.533334 67.335 0 69.3084 0C70.295 0 71.3084 0.186667 72.3484 0.56L71.4284 21.64L80.2284 0.56H85.9884L81.7884 30H76.0284L78.5884 12.04L71.0684 30H65.5884L66.3884 11.96L59.7084 30H56.5084L66.6684 2.52Z" fill="#455043"/>
<path d="M91.1527 30.16C89.1794 30.16 87.6194 29.6533 86.4727 28.64C85.3261 27.6267 84.7527 26.0267 84.7527 23.84C84.7527 22.0267 85.1261 20.0133 85.8727 17.8C86.6194 15.5867 87.8194 13.68 89.4727 12.08C91.1261 10.4533 93.2061 9.64 95.7127 9.64C99.1261 9.64 100.833 11.7733 100.833 16.04V16.08C100.913 16.1067 101.059 16.12 101.273 16.12C102.153 16.12 103.166 15.8933 104.313 15.44C105.459 14.96 106.499 14.3867 107.433 13.72L107.793 14.8C107.019 15.6267 106.006 16.3333 104.753 16.92C103.526 17.48 102.179 17.88 100.713 18.12C100.499 20.5467 99.9527 22.6667 99.0727 24.48C98.1927 26.2933 97.0594 27.6933 95.6727 28.68C94.2861 29.6667 92.7794 30.16 91.1527 30.16ZM92.7527 26.56C93.3927 26.56 94.0327 26.2 94.6727 25.48C95.3127 24.7333 95.8727 23.7333 96.3527 22.48C96.8327 21.2 97.1794 19.7867 97.3927 18.24C96.6727 18.08 96.3127 17.52 96.3127 16.56C96.3127 15.4667 96.7261 14.7467 97.5527 14.4C97.4994 13.52 97.3661 12.92 97.1527 12.6C96.9394 12.2533 96.5661 12.08 96.0327 12.08C95.1527 12.08 94.2994 12.72 93.4727 14C92.6461 15.28 91.9794 16.8133 91.4727 18.6C90.9661 20.3867 90.7127 21.96 90.7127 23.32C90.7127 24.6 90.8594 25.4667 91.1527 25.92C91.4461 26.3467 91.9794 26.56 92.7527 26.56Z" fill="#455043"/>
<path d="M107.451 30.24C105.904 30.24 104.691 29.8533 103.811 29.08C102.958 28.28 102.531 27.0933 102.531 25.52C102.531 24.88 102.598 24.24 102.731 23.6L105.611 10H111.371L108.491 23.6C108.358 24.2667 108.291 24.7467 108.291 25.04C108.291 25.92 108.744 26.36 109.651 26.36C110.878 26.36 112.011 25.5867 113.051 24.04C114.118 22.4933 114.971 20.6533 115.611 18.52C116.251 16.3867 116.571 14.5467 116.571 13C116.518 13.1333 116.344 13.24 116.051 13.32C115.758 13.3733 115.504 13.4 115.291 13.4C114.838 13.4 114.478 13.1867 114.211 12.76C113.971 12.3333 113.851 11.8667 113.851 11.36C113.851 10.72 114.051 10.2 114.451 9.8C114.878 9.4 115.504 9.2 116.331 9.2C117.211 9.2 117.851 9.53333 118.251 10.2C118.651 10.84 118.851 11.6667 118.851 12.68C118.851 15.08 118.438 17.6533 117.611 20.4C116.784 23.12 115.518 25.44 113.811 27.36C112.104 29.28 109.984 30.24 107.451 30.24Z" fill="#455043"/>
<path d="M125.093 30.24C123.147 30.24 121.627 29.7333 120.533 28.72C119.44 27.68 118.893 26.0667 118.893 23.88C118.893 22.04 119.253 20.0133 119.973 17.8C120.693 15.5867 121.867 13.68 123.493 12.08C125.12 10.4533 127.187 9.64 129.693 9.64C132.627 9.64 134.093 10.92 134.093 13.48C134.093 14.9733 133.667 16.3467 132.813 17.6C131.96 18.8533 130.827 19.8667 129.413 20.64C128 21.3867 126.493 21.8133 124.893 21.92C124.84 22.5067 124.813 22.9067 124.813 23.12C124.813 25.3333 125.64 26.44 127.293 26.44C128.04 26.44 128.84 26.24 129.693 25.84C130.547 25.44 131.32 24.9333 132.013 24.32C131.293 28.2667 128.987 30.24 125.093 30.24ZM125.173 20C126.187 19.9733 127.133 19.64 128.013 19C128.92 18.36 129.64 17.5467 130.173 16.56C130.733 15.5467 131.013 14.4933 131.013 13.4C131.013 12.3067 130.68 11.76 130.013 11.76C129.08 11.76 128.147 12.6133 127.213 14.32C126.307 16 125.627 17.8933 125.173 20Z" fill="#455043"/>
<path d="M146.062 3.52H145.582C143.208 3.52 141.355 4.12 140.022 5.32C138.715 6.49333 138.062 8.58667 138.062 11.6C138.062 12.5867 138.155 13.28 138.342 13.68C138.528 14.0533 138.622 14.2667 138.622 14.32C137.182 14.32 136.102 14.0267 135.382 13.44C134.688 12.8267 134.342 11.8267 134.342 10.44C134.342 8.54667 134.808 6.82667 135.742 5.28C136.675 3.70667 138.155 2.44 140.182 1.48C142.235 0.520001 144.835 0.0400019 147.982 0.0400019C149.742 0.0400019 151.635 0.200001 153.662 0.52C155.368 0.813335 156.888 0.960002 158.222 0.960002C159.928 0.960002 161.475 0.680002 162.862 0.120001C162.808 1.85333 162.368 3.13333 161.542 3.96C160.715 4.78667 159.488 5.2 157.862 5.2C157.008 5.2 156.155 5.13334 155.302 5C154.448 4.86667 153.235 4.64 151.662 4.32L146.142 30H140.382L146.062 3.52Z" fill="#455043"/>
<path d="M159.2 30.16C157.226 30.16 155.666 29.6533 154.52 28.64C153.373 27.6267 152.8 26.0267 152.8 23.84C152.8 22 153.16 19.9867 153.88 17.8C154.6 15.5867 155.773 13.68 157.4 12.08C159.026 10.4533 161.106 9.64 163.64 9.64C166.786 9.64 168.48 11.44 168.72 15.04C169.306 14.9067 169.826 14.5867 170.28 14.08C170.733 13.5467 171.16 12.9467 171.56 12.28H172.84C172.12 13.72 171.48 14.8533 170.92 15.68C170.36 16.48 169.626 17.1333 168.72 17.64C168.56 20.1467 168.04 22.3467 167.16 24.24C166.306 26.1333 165.186 27.6 163.8 28.64C162.413 29.6533 160.88 30.16 159.2 30.16ZM160.8 26.56C161.786 26.56 162.706 25.76 163.56 24.16C164.413 22.56 165 20.5867 165.32 18.24C164.68 18 164.36 17.4 164.36 16.44C164.36 15.4 164.733 14.7067 165.48 14.36C165.426 13.5067 165.28 12.92 165.04 12.6C164.826 12.2533 164.466 12.08 163.96 12.08C163.08 12.08 162.24 12.72 161.44 14C160.64 15.2533 159.986 16.7867 159.48 18.6C159 20.3867 158.76 21.96 158.76 23.32C158.76 24.6 158.906 25.4667 159.2 25.92C159.493 26.3467 160.026 26.56 160.8 26.56Z" fill="#455043"/>
<path d="M205.932 30.24C204.305 30.24 203.105 29.8133 202.332 28.96C201.585 28.08 201.212 27 201.212 25.72C201.212 25.16 201.278 24.5333 201.412 23.84C201.545 23.12 201.678 22.4267 201.812 21.76C201.972 21.0933 202.078 20.6667 202.132 20.48C202.345 19.5467 202.545 18.6267 202.732 17.72C202.918 16.8133 203.012 16.08 203.012 15.52C203.012 14.16 202.532 13.48 201.572 13.48C200.905 13.48 200.305 13.8 199.772 14.44C199.265 15.08 198.852 15.9067 198.532 16.92C197.732 21.1067 196.918 25.4667 196.092 30H190.332L195.812 4.48C194.878 4.4 193.118 4.17333 190.532 3.8L184.892 30H179.132L184.852 3.44C182.318 3.54667 180.345 4.2 178.932 5.4C177.518 6.6 176.812 8.66667 176.812 11.6C176.812 12.5867 176.905 13.28 177.092 13.68C177.278 14.0533 177.372 14.2667 177.372 14.32C175.932 14.32 174.852 14.0267 174.132 13.44C173.438 12.8267 173.092 11.8267 173.092 10.44C173.092 8.57334 173.598 6.85333 174.612 5.28C175.625 3.70667 177.185 2.44 179.292 1.48C181.398 0.520001 184.025 0.0400019 187.172 0.0400019C187.705 0.0400019 188.838 0.160002 190.572 0.400002C193.745 0.853334 196.212 1.08 197.972 1.08C200.265 1.08 201.878 0.760001 202.812 0.120001C202.412 0.866667 202.078 1.57333 201.812 2.24C201.572 2.90667 201.265 4 200.892 5.52C200.518 7.01333 200.038 9.22667 199.452 12.16C200.812 10.6133 202.398 9.84 204.212 9.84C205.572 9.84 206.652 10.2133 207.452 10.96C208.252 11.7067 208.652 12.84 208.652 14.36C208.652 15.1333 208.558 16 208.372 16.96C208.185 17.8933 207.918 19.04 207.572 20.4C207.358 21.2267 207.158 22.04 206.972 22.84C206.812 23.6133 206.732 24.2267 206.732 24.68C206.732 25.2133 206.852 25.6267 207.092 25.92C207.332 26.2133 207.745 26.36 208.332 26.36C209.132 26.36 209.772 26.08 210.252 25.52C210.732 24.9333 211.212 24.04 211.692 22.84H213.372C212.385 25.7733 211.238 27.7467 209.932 28.76C208.652 29.7467 207.318 30.24 205.932 30.24Z" fill="#455043"/>
<path d="M216.48 30.24C214.96 30.24 213.693 29.72 212.68 28.68C211.667 27.64 211.16 26.0133 211.16 23.8C211.16 21.8267 211.547 19.76 212.32 17.6C213.12 15.4133 214.293 13.5733 215.84 12.08C217.413 10.56 219.28 9.8 221.44 9.8C222.533 9.8 223.347 9.98667 223.88 10.36C224.413 10.7333 224.68 11.2267 224.68 11.84V12.12L225.12 10H230.88L228 23.6C227.893 24 227.84 24.4267 227.84 24.88C227.84 26.0267 228.387 26.6 229.48 26.6C230.227 26.6 230.867 26.2533 231.4 25.56C231.96 24.8667 232.4 23.96 232.72 22.84H234.4C233.413 25.72 232.187 27.68 230.72 28.72C229.28 29.7333 227.827 30.24 226.36 30.24C225.24 30.24 224.333 29.9333 223.64 29.32C222.973 28.68 222.573 27.76 222.44 26.56C221.667 27.6533 220.8 28.5467 219.84 29.24C218.907 29.9067 217.787 30.24 216.48 30.24ZM219.08 26.36C219.747 26.36 220.4 26.0533 221.04 25.44C221.707 24.8 222.16 23.9333 222.4 22.84L224.32 13.8C224.32 13.4533 224.187 13.12 223.92 12.8C223.653 12.4533 223.24 12.28 222.68 12.28C221.613 12.28 220.653 12.9067 219.8 14.16C218.947 15.3867 218.28 16.88 217.8 18.64C217.32 20.3733 217.08 21.9067 217.08 23.24C217.08 24.5733 217.267 25.4267 217.64 25.8C218.04 26.1733 218.52 26.36 219.08 26.36Z" fill="#455043"/>
<path d="M239.415 7.84C238.535 7.84 237.788 7.53333 237.175 6.92C236.561 6.30667 236.255 5.56 236.255 4.68C236.255 3.8 236.561 3.05334 237.175 2.44C237.788 1.8 238.535 1.48 239.415 1.48C240.295 1.48 241.041 1.8 241.655 2.44C242.295 3.05334 242.615 3.8 242.615 4.68C242.615 5.56 242.295 6.30667 241.655 6.92C241.041 7.53333 240.295 7.84 239.415 7.84ZM236.695 30.24C235.415 30.24 234.375 29.84 233.575 29.04C232.801 28.24 232.415 27.04 232.415 25.44C232.415 24.7733 232.521 23.9067 232.735 22.84L235.455 10H241.215L238.335 23.6C238.228 24 238.175 24.4267 238.175 24.88C238.175 25.4133 238.295 25.8 238.535 26.04C238.801 26.2533 239.228 26.36 239.815 26.36C240.588 26.36 241.308 26.04 241.975 25.4C242.641 24.7333 243.121 23.88 243.415 22.84H245.095C244.108 25.72 242.841 27.68 241.295 28.72C239.748 29.7333 238.215 30.24 236.695 30.24Z" fill="#455043"/>
<path d="M247.359 30.24C246.079 30.24 245.039 29.84 244.239 29.04C243.465 28.24 243.079 27.04 243.079 25.44C243.079 24.7733 243.185 23.9067 243.399 22.84L247.679 2.8L253.599 2L248.999 23.6C248.892 24 248.839 24.4267 248.839 24.88C248.839 25.4133 248.959 25.8 249.199 26.04C249.465 26.2533 249.892 26.36 250.479 26.36C251.252 26.36 251.972 26.04 252.639 25.4C253.305 24.7333 253.785 23.88 254.079 22.84H255.759C254.772 25.72 253.505 27.68 251.959 28.72C250.412 29.7333 248.879 30.24 247.359 30.24Z" fill="#455043"/>
<path d="M258.863 30.24C257.343 30.24 256.076 29.72 255.063 28.68C254.049 27.64 253.543 26.0133 253.543 23.8C253.543 21.8267 253.929 19.76 254.703 17.6C255.503 15.4133 256.676 13.5733 258.223 12.08C259.796 10.56 261.663 9.8 263.823 9.8C264.916 9.8 265.729 9.98667 266.263 10.36C266.796 10.7333 267.063 11.2267 267.063 11.84V12.12L267.503 10H273.263L270.383 23.6C270.276 24 270.223 24.4267 270.223 24.88C270.223 26.0267 270.769 26.6 271.863 26.6C272.609 26.6 273.249 26.2533 273.783 25.56C274.343 24.8667 274.783 23.96 275.103 22.84H276.783C275.796 25.72 274.569 27.68 273.103 28.72C271.663 29.7333 270.209 30.24 268.743 30.24C267.623 30.24 266.716 29.9333 266.023 29.32C265.356 28.68 264.956 27.76 264.823 26.56C264.049 27.6533 263.183 28.5467 262.223 29.24C261.289 29.9067 260.169 30.24 258.863 30.24ZM261.463 26.36C262.129 26.36 262.783 26.0533 263.423 25.44C264.089 24.8 264.543 23.9333 264.783 22.84L266.703 13.8C266.703 13.4533 266.569 13.12 266.303 12.8C266.036 12.4533 265.623 12.28 265.063 12.28C263.996 12.28 263.036 12.9067 262.183 14.16C261.329 15.3867 260.663 16.88 260.183 18.64C259.703 20.3733 259.463 21.9067 259.463 23.24C259.463 24.5733 259.649 25.4267 260.023 25.8C260.423 26.1733 260.903 26.36 261.463 26.36Z" fill="#455043"/>
<path d="M289.557 30.24C287.931 30.24 286.731 29.8133 285.957 28.96C285.211 28.08 284.837 27 284.837 25.72C284.837 25.16 284.904 24.5333 285.037 23.84C285.171 23.12 285.304 22.4267 285.437 21.76C285.597 21.0933 285.704 20.6667 285.757 20.48C285.971 19.5467 286.171 18.6267 286.357 17.72C286.544 16.8133 286.637 16.08 286.637 15.52C286.637 14.16 286.157 13.48 285.197 13.48C284.504 13.48 283.891 13.8267 283.357 14.52C282.824 15.1867 282.397 16.0667 282.077 17.16L279.357 30H273.597L277.837 10H283.597L283.157 12.08C284.491 10.5867 286.051 9.84 287.837 9.84C289.197 9.84 290.277 10.2133 291.077 10.96C291.877 11.7067 292.277 12.84 292.277 14.36C292.277 15.1333 292.184 16 291.997 16.96C291.811 17.8933 291.544 19.04 291.197 20.4C290.984 21.2267 290.784 22.04 290.597 22.84C290.437 23.6133 290.357 24.2267 290.357 24.68C290.357 25.2133 290.477 25.6267 290.717 25.92C290.957 26.2133 291.371 26.36 291.957 26.36C292.757 26.36 293.397 26.08 293.877 25.52C294.357 24.9333 294.837 24.04 295.317 22.84H296.997C296.011 25.7733 294.864 27.7467 293.557 28.76C292.277 29.7467 290.944 30.24 289.557 30.24Z" fill="#455043"/>
<path d="M300.113 30.24C298.593 30.24 297.326 29.72 296.313 28.68C295.299 27.64 294.793 26.0133 294.793 23.8C294.793 21.8267 295.179 19.76 295.953 17.6C296.753 15.4133 297.926 13.5733 299.473 12.08C301.046 10.56 302.913 9.8 305.073 9.8C306.166 9.8 306.979 9.98667 307.513 10.36C308.046 10.7333 308.313 11.2267 308.313 11.84V12L310.273 2.8L316.193 2L311.593 23.6C311.486 24 311.433 24.3867 311.433 24.76C311.433 25.8267 311.979 26.36 313.073 26.36C313.553 26.36 313.979 26.28 314.353 26.12C314.246 27.4533 313.766 28.48 312.913 29.2C312.086 29.8933 311.099 30.24 309.953 30.24C308.886 30.24 307.979 29.9733 307.233 29.44C306.513 28.88 306.033 28.04 305.793 26.92C304.193 29.1333 302.299 30.24 300.113 30.24ZM302.713 26.36C303.299 26.36 303.886 26.1067 304.473 25.6C305.086 25.0933 305.539 24.3867 305.833 23.48L305.993 22.84L307.953 13.68C307.713 12.7467 307.166 12.28 306.313 12.28C305.246 12.28 304.286 12.9067 303.433 14.16C302.579 15.3867 301.913 16.88 301.433 18.64C300.953 20.3733 300.713 21.9067 300.713 23.24C300.713 24.5733 300.899 25.4267 301.273 25.8C301.673 26.1733 302.153 26.36 302.713 26.36Z" fill="#455043"/>
<path d="M318.736 30.16C317.856 30.16 317.11 29.8533 316.496 29.24C315.883 28.6267 315.576 27.88 315.576 27C315.576 26.12 315.883 25.3733 316.496 24.76C317.11 24.12 317.856 23.8 318.736 23.8C319.616 23.8 320.363 24.12 320.976 24.76C321.616 25.3733 321.936 26.12 321.936 27C321.936 27.88 321.616 28.6267 320.976 29.24C320.363 29.8533 319.616 30.16 318.736 30.16Z" fill="#455043"/>
<path d="M330.564 30.24C328.591 30.24 327.057 29.7333 325.964 28.72C324.871 27.68 324.324 26.0667 324.324 23.88C324.324 22.04 324.684 20.0133 325.404 17.8C326.151 15.5867 327.324 13.68 328.924 12.08C330.551 10.4533 332.604 9.64 335.084 9.64C336.684 9.64 337.817 9.98667 338.484 10.68C339.177 11.3733 339.524 12.2533 339.524 13.32C339.524 14.2533 339.324 14.9733 338.924 15.48C338.524 15.9867 338.017 16.24 337.404 16.24C336.951 16.24 336.484 16.08 336.004 15.76C336.324 14.88 336.484 14.0933 336.484 13.4C336.484 12.8933 336.391 12.4933 336.204 12.2C336.017 11.9067 335.737 11.76 335.364 11.76C334.564 11.76 333.764 12.4133 332.964 13.72C332.164 15.0267 331.511 16.6133 331.004 18.48C330.497 20.3467 330.244 22.0267 330.244 23.52C330.244 24.8267 330.471 25.72 330.924 26.2C331.377 26.6533 332.111 26.88 333.124 26.88C334.564 26.88 335.791 26.5467 336.804 25.88C337.844 25.2133 338.977 24.2 340.204 22.84H341.564C338.604 27.7733 334.937 30.24 330.564 30.24Z" fill="#455043"/>
<path d="M346.036 30.16C344.062 30.16 342.502 29.6533 341.356 28.64C340.209 27.6267 339.636 26.0267 339.636 23.84C339.636 22.0267 340.009 20.0133 340.756 17.8C341.502 15.5867 342.702 13.68 344.356 12.08C346.009 10.4533 348.089 9.64 350.596 9.64C354.009 9.64 355.716 11.7733 355.716 16.04V16.08C355.796 16.1067 355.942 16.12 356.156 16.12C357.036 16.12 358.049 15.8933 359.196 15.44C360.342 14.96 361.382 14.3867 362.316 13.72L362.676 14.8C361.902 15.6267 360.889 16.3333 359.636 16.92C358.409 17.48 357.062 17.88 355.596 18.12C355.382 20.5467 354.836 22.6667 353.956 24.48C353.076 26.2933 351.942 27.6933 350.556 28.68C349.169 29.6667 347.662 30.16 346.036 30.16ZM347.636 26.56C348.276 26.56 348.916 26.2 349.556 25.48C350.196 24.7333 350.756 23.7333 351.236 22.48C351.716 21.2 352.062 19.7867 352.276 18.24C351.556 18.08 351.196 17.52 351.196 16.56C351.196 15.4667 351.609 14.7467 352.436 14.4C352.382 13.52 352.249 12.92 352.036 12.6C351.822 12.2533 351.449 12.08 350.916 12.08C350.036 12.08 349.182 12.72 348.356 14C347.529 15.28 346.862 16.8133 346.356 18.6C345.849 20.3867 345.596 21.96 345.596 23.32C345.596 24.6 345.742 25.4667 346.036 25.92C346.329 26.3467 346.862 26.56 347.636 26.56Z" fill="#455043"/>
<path d="M381.414 30.24C380 30.24 378.974 29.8133 378.334 28.96C377.694 28.1067 377.374 27.0267 377.374 25.72C377.374 25.16 377.44 24.5333 377.574 23.84C377.707 23.12 377.84 22.4267 377.974 21.76C378.134 21.0933 378.24 20.6667 378.294 20.48C378.507 19.5467 378.707 18.6267 378.894 17.72C379.08 16.8133 379.174 16.08 379.174 15.52C379.174 14.16 378.694 13.48 377.734 13.48C377.04 13.48 376.427 13.8267 375.894 14.52C375.36 15.1867 374.934 16.0667 374.614 17.16L371.894 30H366.134L369.054 16.2C369.134 15.88 369.174 15.5467 369.174 15.2C369.174 14.0267 368.774 13.44 367.974 13.44C367.227 13.44 366.574 13.7867 366.014 14.48C365.48 15.1467 365.054 16.04 364.734 17.16L362.014 30H356.254L360.494 10H366.254L365.814 12.08C367.174 10.56 368.8 9.8 370.694 9.8C373.04 9.8 374.414 10.9467 374.814 13.24C376.28 10.9733 378.134 9.84 380.374 9.84C381.734 9.84 382.814 10.2133 383.614 10.96C384.414 11.7067 384.814 12.84 384.814 14.36C384.814 15.1333 384.72 16 384.534 16.96C384.347 17.8933 384.08 19.04 383.734 20.4C383.52 21.2267 383.32 22.04 383.134 22.84C382.974 23.6133 382.894 24.2267 382.894 24.68C382.894 25.2133 383.014 25.6267 383.254 25.92C383.494 26.2133 383.907 26.36 384.494 26.36C385.134 26.36 385.574 26.28 385.814 26.12C385.654 27.48 385.16 28.5067 384.334 29.2C383.534 29.8933 382.56 30.24 381.414 30.24Z" fill="#455043"/>
</svg>
