<svg width="81" height="50" viewBox="0 0 81 50" fill="none" xmlns="http://www.w3.org/2000/svg">
<path d="M18.3316 50C14.0684 50 10.5868 49.2928 7.88684 47.8784C5.18684 46.4639 3.19737 44.6252 1.91842 42.3621C0.639474 40.1462 0 37.8124 0 35.3607C0 33.0976 0.497368 30.8817 1.49211 28.7129C2.48684 26.5441 3.88421 24.6818 5.68421 23.1259C7.53158 21.5229 9.73421 20.4385 12.2921 19.8727C12.3868 19.8727 12.4579 19.8727 12.5053 19.8727C12.5526 19.8256 12.6 19.802 12.6474 19.802C13.0263 19.802 13.3342 19.9434 13.5711 20.2263C13.8079 20.462 13.9263 20.7685 13.9263 21.1457C13.9263 21.8529 13.5711 22.3008 12.8605 22.4894C10.6816 22.9609 8.83421 23.8331 7.31842 25.1061C5.80263 26.3791 4.64211 27.8642 3.83684 29.5615C3.07895 31.2588 2.7 33.0269 2.7 34.8656C2.7 36.9401 3.24474 38.9203 4.33421 40.8062C5.42368 42.7393 7.10526 44.2951 9.37895 45.4738C11.7 46.6997 14.6842 47.3126 18.3316 47.3126C21.7421 47.3126 24.8211 46.6761 27.5684 45.4031C30.3632 44.1301 32.8737 42.4328 35.1 40.3112C37.3263 38.1424 39.3632 35.6907 41.2105 32.9562C43.1053 30.2216 44.8579 27.3692 46.4684 24.3989C48.0789 21.3814 49.6184 18.4347 51.0868 15.5587C52.6026 12.6827 54.0947 10.0424 55.5632 7.63791C55.1368 7.49646 54.7342 7.35502 54.3553 7.21358C54.0237 7.02499 53.6921 6.88354 53.3605 6.78925C50.4711 5.65771 47.5342 4.66761 44.55 3.81895C41.5658 2.9703 38.5105 2.54597 35.3842 2.54597C35.0053 2.54597 34.6026 2.56954 34.1763 2.61669C33.75 2.61669 33.3237 2.64026 32.8974 2.68741C29.6763 2.9703 26.9289 3.88967 24.6553 5.44555C22.3816 7.00142 20.6526 8.84017 19.4684 10.9618C18.2842 13.0363 17.6921 15.0401 17.6921 16.9731C17.6921 18.8119 18.2605 20.3678 19.3974 21.6407C20.5342 22.9137 22.2632 23.5502 24.5842 23.5502C26.6684 23.5502 28.5632 22.9609 30.2684 21.7822C32.021 20.6035 33.4658 19.1655 34.6026 17.4682C35.7868 15.7237 36.5684 14.0028 36.9474 12.3055C37.0895 11.6454 37.4921 11.3154 38.1553 11.3154C38.5342 11.3154 38.8658 11.4569 39.15 11.7397C39.4342 11.9755 39.5289 12.3527 39.4342 12.8713C39.15 14.2857 38.5816 15.7473 37.7289 17.256C36.9237 18.7647 35.8816 20.2027 34.6026 21.57C33.3711 22.8901 31.9263 23.9745 30.2684 24.8232C28.6579 25.6247 26.9053 26.049 25.0105 26.0962C21.6947 26.1905 19.2316 25.3418 17.6211 23.5502C16.0579 21.7586 15.2763 19.5898 15.2763 17.0438C15.2763 15.2522 15.6553 13.4371 16.4132 11.5983C17.1711 9.7124 18.2605 7.94437 19.6816 6.2942C21.15 4.64404 22.9737 3.27676 25.1526 2.19236C27.3316 1.06082 29.8421 0.377179 32.6842 0.141441C33.2053 0.0942939 33.7263 0.0707204 34.2474 0.0707204C34.7684 0.0235735 35.2658 0 35.7395 0C39.7184 0 43.4368 0.589344 46.8947 1.76803C50.4 2.89958 53.7868 4.12541 57.0553 5.44555C58.05 4.07826 59.1868 2.94672 60.4658 2.05092C61.7921 1.15511 63.1184 0.707213 64.4447 0.707213C65.3921 0.707213 66.2447 0.942951 67.0026 1.41443C67.4289 1.69731 67.6421 2.05092 67.6421 2.47525C67.6421 2.85243 67.5237 3.20603 67.2868 3.53607C67.05 3.81895 66.7421 3.9604 66.3632 3.9604C66.221 3.9604 66.0789 3.93682 65.9368 3.88968C65.8421 3.79538 65.7237 3.72466 65.5816 3.67751C65.3447 3.48892 64.9895 3.39462 64.5158 3.39462C63.8526 3.39462 63.0947 3.63036 62.2421 4.10184C61.4368 4.57331 60.5842 5.37482 59.6842 6.50637C61.8632 7.30787 64.0184 8.03866 66.15 8.69873C68.3289 9.35879 70.5553 9.75955 72.8289 9.90099C73.2553 9.90099 73.8947 9.83027 74.7474 9.68883C75.6 9.54738 76.4053 9.28807 77.1632 8.91089C77.921 8.53371 78.3474 8.03866 78.4421 7.42574C78.3474 7.14286 78.3 6.95427 78.3 6.85997C78.3 6.19991 78.6789 5.86987 79.4368 5.86987C79.8158 5.86987 80.171 6.01132 80.5026 6.2942C80.8342 6.57709 81 6.97784 81 7.49646C81 7.92079 80.8579 8.41584 80.5737 8.98161C79.9105 10.2074 78.9395 11.0797 77.6605 11.5983C76.4289 12.1169 75.0079 12.3762 73.3974 12.3762C71.0289 12.3762 68.4474 11.9755 65.6526 11.174C62.9053 10.3253 60.4184 9.47666 58.1921 8.62801C56.5342 11.2211 54.9237 14.0264 53.3605 17.0438C51.7974 20.0613 50.1632 23.1259 48.4579 26.2376C46.8 29.3022 44.9763 32.2725 42.9868 35.1485C41.0447 37.9774 38.8895 40.4998 36.521 42.7157C34.1526 44.9788 31.4763 46.7468 28.4921 48.0198C25.5079 49.3399 22.1211 50 18.3316 50Z" fill="black"/>
</svg>
