<svg width="44" height="19" viewBox="0 0 44 19" fill="none" xmlns="http://www.w3.org/2000/svg">
<path d="M6.52 18.1199C5.08 18.1199 3.904 17.8799 2.992 17.3999C2.08 16.9199 1.408 16.2959 0.976003 15.5279C0.544003 14.7759 0.328003 13.9839 0.328003 13.1519C0.328003 12.3839 0.496003 11.6319 0.832003 10.8959C1.168 10.1599 1.64 9.52789 2.248 8.9999C2.872 8.45589 3.616 8.0879 4.48 7.8959C4.512 7.8959 4.536 7.8959 4.552 7.8959C4.568 7.8799 4.584 7.87189 4.6 7.87189C4.728 7.87189 4.832 7.9199 4.912 8.0159C4.992 8.0959 5.032 8.1999 5.032 8.3279C5.032 8.5679 4.912 8.7199 4.672 8.7839C3.936 8.9439 3.312 9.2399 2.8 9.6719C2.288 10.1039 1.896 10.6079 1.624 11.1839C1.368 11.7599 1.24 12.3599 1.24 12.9839C1.24 13.6879 1.424 14.3599 1.792 14.9999C2.16 15.6559 2.728 16.1839 3.496 16.5839C4.28 16.9999 5.288 17.2079 6.52 17.2079C7.672 17.2079 8.712 16.9919 9.64 16.5599C10.584 16.1279 11.432 15.5519 12.184 14.8319C12.936 14.0959 13.624 13.2639 14.248 12.3359C14.888 11.4079 15.48 10.4399 16.024 9.4319C16.568 8.4079 17.088 7.4079 17.584 6.4319C18.096 5.4559 18.6 4.5599 19.096 3.7439C18.952 3.69589 18.816 3.64789 18.688 3.5999C18.576 3.53589 18.464 3.48789 18.352 3.45589C17.376 3.0719 16.384 2.7359 15.376 2.4479C14.368 2.1599 13.336 2.0159 12.28 2.0159C12.152 2.0159 12.016 2.0239 11.872 2.0399C11.728 2.0399 11.584 2.04789 11.44 2.06389C10.352 2.15989 9.424 2.47189 8.656 2.9999C7.888 3.5279 7.304 4.1519 6.904 4.87189C6.504 5.57589 6.304 6.2559 6.304 6.9119C6.304 7.5359 6.496 8.0639 6.88 8.4959C7.264 8.9279 7.848 9.1439 8.632 9.1439C9.336 9.1439 9.976 8.94389 10.552 8.54389C11.144 8.1439 11.632 7.6559 12.016 7.0799C12.416 6.4879 12.68 5.9039 12.808 5.3279C12.856 5.1039 12.992 4.99189 13.216 4.99189C13.344 4.99189 13.456 5.0399 13.552 5.1359C13.648 5.2159 13.68 5.3439 13.648 5.5199C13.552 5.9999 13.36 6.4959 13.072 7.0079C12.8 7.5199 12.448 8.00789 12.016 8.4719C11.6 8.9199 11.112 9.2879 10.552 9.5759C10.008 9.8479 9.416 9.9919 8.776 10.0079C7.656 10.0399 6.824 9.7519 6.28 9.1439C5.752 8.5359 5.488 7.7999 5.488 6.93589C5.488 6.3279 5.616 5.7119 5.872 5.0879C6.128 4.4479 6.496 3.8479 6.976 3.28789C7.472 2.7279 8.088 2.2639 8.824 1.8959C9.56 1.51189 10.408 1.27989 11.368 1.19989C11.544 1.18389 11.72 1.17589 11.896 1.17589C12.072 1.15989 12.24 1.1519 12.4 1.1519C13.744 1.1519 15 1.35189 16.168 1.75189C17.352 2.1359 18.496 2.5519 19.6 2.9999C19.936 2.53589 20.32 2.15189 20.752 1.84789C21.2 1.54389 21.648 1.39189 22.096 1.39189C22.416 1.39189 22.704 1.47189 22.96 1.63189C23.104 1.7279 23.176 1.8479 23.176 1.99189C23.176 2.11989 23.136 2.23989 23.056 2.3519C22.976 2.4479 22.872 2.49589 22.744 2.49589C22.696 2.49589 22.648 2.4879 22.6 2.4719C22.568 2.43989 22.528 2.41589 22.48 2.39989C22.4 2.33589 22.28 2.30389 22.12 2.30389C21.896 2.30389 21.64 2.38389 21.352 2.54389C21.08 2.7039 20.792 2.9759 20.488 3.3599C21.224 3.6319 21.952 3.87989 22.672 4.10389C23.408 4.32789 24.16 4.46389 24.928 4.5119C25.072 4.5119 25.288 4.4879 25.576 4.43989C25.864 4.39189 26.136 4.30389 26.392 4.17589C26.648 4.04789 26.792 3.87989 26.824 3.67189C26.792 3.5759 26.776 3.5119 26.776 3.4799C26.776 3.2559 26.904 3.1439 27.16 3.1439C27.288 3.1439 27.408 3.1919 27.52 3.28789C27.632 3.38389 27.688 3.5199 27.688 3.6959C27.688 3.8399 27.64 4.00789 27.544 4.19989C27.32 4.61589 26.992 4.9119 26.56 5.0879C26.144 5.2639 25.664 5.3519 25.12 5.3519C24.32 5.3519 23.448 5.2159 22.504 4.94389C21.576 4.6559 20.736 4.3679 19.984 4.0799C19.424 4.9599 18.88 5.9119 18.352 6.93589C17.824 7.9599 17.272 8.99989 16.696 10.0559C16.136 11.0959 15.52 12.1039 14.848 13.0799C14.192 14.0399 13.464 14.8959 12.664 15.6479C11.864 16.4159 10.96 17.0159 9.952 17.4479C8.944 17.8959 7.8 18.1199 6.52 18.1199Z" fill="black"/>
<path d="M19.6699 15.1919C19.5579 15.1919 19.4539 15.1519 19.3579 15.0719C19.2619 15.0079 19.2219 14.9039 19.2379 14.7599C19.3019 13.9599 19.5259 13.0239 19.9099 11.9519C20.3099 10.8799 20.7979 9.79189 21.3739 8.68789C21.1819 8.6719 20.9899 8.6479 20.7979 8.6159C20.6859 8.5839 20.5979 8.52789 20.5339 8.4479C20.4699 8.36789 20.4379 8.2879 20.4379 8.2079C20.4379 8.1279 20.4619 8.05589 20.5099 7.99189C20.5739 7.91189 20.6619 7.87189 20.7739 7.87189C20.8699 7.87189 20.9739 7.8879 21.0859 7.9199C21.2139 7.9359 21.3499 7.9439 21.4939 7.9439C21.5899 7.9439 21.6779 7.9439 21.7579 7.9439C22.3179 6.87189 22.9099 5.86389 23.5339 4.9199C24.1579 3.9599 24.7339 3.15989 25.2619 2.51989C25.5819 2.13589 25.9179 1.76789 26.2699 1.41589C26.6219 1.0639 26.9819 0.775895 27.3499 0.551894C27.7339 0.311894 28.1019 0.191895 28.4539 0.191895C28.9179 0.191895 29.2379 0.319895 29.4139 0.575895C29.6059 0.815895 29.7019 1.11989 29.7019 1.4879C29.7019 2.01589 29.5579 2.55189 29.2699 3.0959C29.0299 3.5439 28.6699 4.0639 28.1899 4.6559C27.7099 5.2319 27.1499 5.8079 26.5099 6.38389C25.8859 6.9439 25.2059 7.4319 24.4699 7.8479C23.7499 8.2639 23.0139 8.5279 22.2619 8.6399C21.9259 9.2799 21.6219 9.9119 21.3499 10.5359C21.0939 11.1599 20.8699 11.7519 20.6779 12.3119C20.8059 12.1519 20.9339 11.9919 21.0619 11.8319C21.4779 11.3199 21.8939 10.8399 22.3099 10.3919C22.7259 9.9279 23.2539 9.46389 23.8939 8.9999C24.5339 8.53589 25.1019 8.1679 25.5979 7.8959C26.1099 7.6079 26.4459 7.4719 26.6059 7.4879C26.9419 7.5359 27.1099 7.7199 27.1099 8.0399C27.1099 8.2479 27.0459 8.4879 26.9179 8.7599C26.8059 9.0159 26.6859 9.2479 26.5579 9.4559C26.4299 9.6639 26.3419 9.8079 26.2939 9.8879C26.1179 10.1599 25.8779 10.5679 25.5739 11.1119C25.2699 11.6559 25.0139 12.1839 24.8059 12.6959C24.7419 12.8719 24.6779 13.0559 24.6139 13.2479C24.5659 13.4239 24.5419 13.5759 24.5419 13.7039C24.5419 13.9119 24.6299 14.0159 24.8059 14.0159C24.9659 14.0159 25.1979 13.9359 25.5019 13.7759C25.8859 13.5679 26.2379 13.3039 26.5579 12.9839C26.8939 12.6479 27.1819 12.3599 27.4219 12.1199C27.4379 12.1039 27.5099 12.0239 27.6379 11.8799C27.7819 11.7359 27.9179 11.5919 28.0459 11.4479C28.1899 11.3039 28.2619 11.2319 28.2619 11.2319C28.3259 11.1519 28.4059 11.1119 28.5019 11.1119C28.5819 11.1119 28.6539 11.1599 28.7179 11.2559C28.7979 11.3359 28.8379 11.4399 28.8379 11.5679C28.8379 11.7119 28.7979 11.8319 28.7179 11.9279C28.4779 12.2639 28.1499 12.6319 27.7339 13.0319C27.3179 13.4319 26.9499 13.7599 26.6299 14.0159C26.2939 14.2719 25.9499 14.4719 25.5979 14.6159C25.2459 14.7599 24.9259 14.8319 24.6379 14.8319C24.3339 14.8319 24.0779 14.7439 23.8699 14.5679C23.6779 14.3919 23.5819 14.1119 23.5819 13.7279C23.5819 13.3759 23.6619 12.9839 23.8219 12.5519C24.0459 11.8959 24.3739 11.2479 24.8059 10.6079C25.2539 9.9679 25.6219 9.3519 25.9099 8.7599C24.7419 9.4479 23.6619 10.2879 22.6699 11.2799C21.6779 12.2719 20.8299 13.3199 20.1259 14.4239C20.1099 14.5519 20.0939 14.6799 20.0779 14.8079C20.0779 14.9359 20.0299 15.0319 19.9339 15.0959C19.8539 15.1599 19.7659 15.1919 19.6699 15.1919ZM28.4299 1.0319C28.1259 1.0319 27.7659 1.19989 27.3499 1.53589C26.9339 1.87189 26.5019 2.31189 26.0539 2.85589C25.6219 3.38389 25.1899 3.9599 24.7579 4.5839C24.3259 5.1919 23.9339 5.7839 23.5819 6.3599C23.2299 6.9199 22.9499 7.38389 22.7419 7.75189C23.3819 7.52789 24.0699 7.1759 24.8059 6.6959C25.5419 6.2159 26.2379 5.6399 26.8939 4.9679C27.5499 4.2959 28.0939 3.5519 28.5259 2.73589C28.6539 2.4799 28.7419 2.2639 28.7899 2.08789C28.8539 1.8959 28.8859 1.7359 28.8859 1.60789C28.8859 1.38389 28.8299 1.23189 28.7179 1.1519C28.6219 1.0719 28.5259 1.0319 28.4299 1.0319Z" fill="black"/>
<path d="M29.5926 15.3599C29.0966 15.3599 28.6726 15.2079 28.3206 14.9039C27.9846 14.5999 27.8166 14.0719 27.8166 13.3199C27.8166 12.8079 27.9446 12.2079 28.2006 11.5199C28.4726 10.8319 28.8326 10.1679 29.2806 9.52789C29.7286 8.87189 30.2246 8.3359 30.7686 7.9199C31.3126 7.4879 31.8646 7.27189 32.4246 7.27189C32.7926 7.27189 33.0646 7.4079 33.2406 7.6799C33.4326 7.9359 33.5286 8.2479 33.5286 8.6159C33.5286 9.1599 33.3526 9.6879 33.0006 10.1999C32.6486 10.7119 32.2006 11.1279 31.6566 11.4479C31.1286 11.7679 30.6006 11.9279 30.0726 11.9279C29.6406 11.9279 29.3126 11.7919 29.0886 11.5199C28.9606 11.8399 28.8566 12.1519 28.7766 12.4559C28.6966 12.7599 28.6566 13.0479 28.6566 13.3199C28.6566 13.7839 28.7526 14.1119 28.9446 14.3039C29.1526 14.4799 29.4086 14.5679 29.7126 14.5679C30.0806 14.5679 30.4886 14.4719 30.9366 14.2799C31.4006 14.0879 31.8326 13.8639 32.2326 13.6079C32.6326 13.3359 32.9286 13.1119 33.1206 12.9359C33.4406 12.6639 33.7446 12.3679 34.0326 12.0479C34.3366 11.7119 34.6006 11.3999 34.8246 11.1119C34.9046 11.0159 34.9926 10.9679 35.0886 10.9679C35.1846 10.9679 35.2646 11.0159 35.3286 11.1119C35.4086 11.1919 35.4486 11.2959 35.4486 11.4239C35.4486 11.5359 35.4086 11.6479 35.3286 11.7599C35.0726 12.0799 34.7526 12.4479 34.3686 12.8639C34.0006 13.2639 33.5846 13.6399 33.1206 13.9919C32.8646 14.1999 32.5366 14.4079 32.1366 14.6159C31.7366 14.8239 31.3126 14.9999 30.8646 15.1439C30.4326 15.2879 30.0086 15.3599 29.5926 15.3599ZM30.0246 11.1599C30.3446 11.1599 30.6886 11.0559 31.0566 10.8479C31.4406 10.6399 31.7766 10.3679 32.0646 10.0319C32.3686 9.67989 32.5686 9.3039 32.6646 8.9039C32.6806 8.8719 32.6886 8.8319 32.6886 8.7839C32.6886 8.7359 32.6886 8.6959 32.6886 8.6639C32.6886 8.3759 32.5846 8.2319 32.3766 8.2319C32.0406 8.2319 31.6886 8.3599 31.3206 8.6159C30.9526 8.8559 30.6006 9.1839 30.2646 9.5999C29.9446 9.9999 29.6566 10.4399 29.4006 10.9199C29.4646 10.9679 29.5286 11.0159 29.5926 11.0639C29.6566 11.0959 29.7206 11.1199 29.7846 11.1359C29.8166 11.1519 29.8566 11.1599 29.9046 11.1599C29.9526 11.1599 29.9926 11.1599 30.0246 11.1599Z" fill="black"/>
<path d="M35.1734 15.1199C34.7254 15.1199 34.3894 14.9919 34.1654 14.7359C33.9574 14.4639 33.8534 14.1279 33.8534 13.7279C33.8534 13.2799 33.9814 12.7599 34.2374 12.1679C34.5094 11.5599 34.8614 10.9359 35.2934 10.2959C35.7254 9.6559 36.1974 9.0639 36.7094 8.5199C37.2374 7.9599 37.7654 7.5119 38.2934 7.1759C38.8214 6.8239 39.3094 6.64789 39.7574 6.64789C40.0614 6.64789 40.3574 6.6959 40.6454 6.7919C40.9334 6.8719 41.1654 7.0399 41.3414 7.2959C41.5334 7.5519 41.6294 7.9279 41.6294 8.42389C41.6294 8.5999 41.5814 8.7279 41.4854 8.8079C41.3894 8.8879 41.3014 8.92789 41.2214 8.92789C41.0454 8.92789 40.9574 8.86389 40.9574 8.7359C40.8774 8.2239 40.7094 7.8879 40.4534 7.7279C40.2134 7.5679 39.9814 7.4879 39.7574 7.4879C39.4374 7.4879 39.0614 7.6479 38.6294 7.9679C38.1974 8.2879 37.7574 8.6959 37.3094 9.1919C36.8614 9.6879 36.4374 10.2239 36.0374 10.7999C35.6534 11.3599 35.3414 11.9039 35.1014 12.4319C34.8614 12.9439 34.7414 13.3679 34.7414 13.7039C34.7414 13.8639 34.7654 14.0079 34.8134 14.1359C34.8774 14.2639 34.9734 14.3279 35.1014 14.3279C35.3414 14.3279 35.6534 14.1999 36.0374 13.9439C36.4214 13.6879 36.8294 13.3599 37.2614 12.9599C37.7094 12.5439 38.1494 12.1119 38.5814 11.6639C39.0134 11.2159 39.4054 10.7919 39.7574 10.3919C40.1094 9.9919 40.3814 9.6719 40.5734 9.4319C40.6694 9.2879 40.7894 9.2159 40.9334 9.2159C41.0454 9.2159 41.1494 9.2559 41.2454 9.3359C41.3414 9.4159 41.3894 9.5199 41.3894 9.6479C41.3894 9.7119 41.3654 9.7839 41.3174 9.8639C41.2054 10.0399 41.0694 10.2879 40.9094 10.6079C40.7654 10.9279 40.6134 11.2719 40.4534 11.6399C40.3094 12.0079 40.1814 12.3519 40.0694 12.6719C39.9734 12.9759 39.9254 13.2079 39.9254 13.3679C39.9254 13.5279 39.9814 13.6079 40.0934 13.6079C40.1734 13.6079 40.2694 13.5679 40.3814 13.4879C40.5094 13.4079 40.6214 13.3359 40.7174 13.2719C41.1014 12.9519 41.4694 12.6159 41.8214 12.2639C42.1734 11.8959 42.4934 11.5519 42.7814 11.2319C42.8454 11.1519 42.9254 11.1119 43.0214 11.1119C43.1014 11.1119 43.1734 11.1599 43.2374 11.2559C43.3174 11.3359 43.3574 11.4399 43.3574 11.5679C43.3574 11.7119 43.3174 11.8319 43.2374 11.9279C42.9814 12.2639 42.6454 12.6399 42.2294 13.0559C41.8134 13.4559 41.4454 13.7759 41.1254 14.0159C40.9174 14.1599 40.6694 14.3039 40.3814 14.4479C40.1094 14.5759 39.8454 14.6399 39.5894 14.6399C39.3974 14.6399 39.2374 14.5839 39.1094 14.4719C38.9814 14.3439 38.9174 14.1279 38.9174 13.8239C38.9174 13.5839 38.9574 13.3119 39.0374 13.0079C39.1174 12.7039 39.2134 12.3919 39.3254 12.0719C38.8774 12.5519 38.3974 13.0239 37.8854 13.4879C37.3734 13.9519 36.8774 14.3439 36.3974 14.6639C35.9334 14.9679 35.5254 15.1199 35.1734 15.1199Z" fill="black"/>
</svg>
