<svg width="608" height="69" viewBox="0 0 608 69" fill="none" xmlns="http://www.w3.org/2000/svg">
<path d="M52.9043 1.7841V9.58953H30.9348V67.3051H21.9695V9.58953H0V1.7841H52.9043Z" fill="black"/>
<path d="M61.2483 1.7841H70.1692V28.8578H104.078V1.7841H112.999V67.3051H104.078V36.6632H70.1692V67.3051H61.2483V1.7841Z" fill="black"/>
<path d="M127.556 1.7841H175.09V9.81254H136.166V29.7052H172.161V37.2877H136.166V59.4997H175.756V67.3051H127.556V1.7841Z" fill="black"/>
<path d="M240.111 0C248.366 0 254.772 2.18552 259.329 6.55656C263.885 10.9276 266.415 15.8933 266.918 21.4538H258.308C257.331 17.2314 255.379 13.8862 252.449 11.4182C249.55 8.95023 245.466 7.71623 240.2 7.71623C233.779 7.71623 228.586 9.99095 224.621 14.5404C220.686 19.0601 218.718 26.0032 218.718 35.3697C218.718 43.0414 220.494 49.2708 224.044 54.0582C227.625 58.8158 232.951 61.1946 240.022 61.1946C246.532 61.1946 251.488 58.682 254.89 53.6568C256.695 51.0103 258.042 47.5314 258.929 43.2198H267.54C266.77 50.1183 264.226 55.9017 259.906 60.5701C254.728 66.19 247.745 69 238.957 69C231.382 69 225.021 66.6955 219.872 62.0866C213.097 55.991 209.709 46.5798 209.709 33.8533C209.709 24.1894 212.253 16.265 217.343 10.0802C222.846 3.36005 230.436 0 240.111 0Z" fill="black"/>
<path d="M278.546 1.7841H287.467V28.8578H321.376V1.7841H330.297V67.3051H321.376V36.6632H287.467V67.3051H278.546V1.7841Z" fill="black"/>
<path d="M344.854 1.7841H392.388V9.81254H353.465V29.7052H389.459V37.2877H353.465V59.4997H393.054V67.3051H344.854V1.7841Z" fill="black"/>
<path d="M432.111 0C440.366 0 446.772 2.18552 451.329 6.55656C455.885 10.9276 458.415 15.8933 458.918 21.4538H450.308C449.331 17.2314 447.379 13.8862 444.449 11.4182C441.55 8.95023 437.466 7.71623 432.2 7.71623C425.779 7.71623 420.586 9.99095 416.621 14.5404C412.686 19.0601 410.718 26.0032 410.718 35.3697C410.718 43.0414 412.494 49.2708 416.044 54.0582C419.625 58.8158 424.951 61.1946 432.022 61.1946C438.532 61.1946 443.488 58.682 446.89 53.6568C448.695 51.0103 450.042 47.5314 450.929 43.2198H459.54C458.77 50.1183 456.226 55.9017 451.906 60.5701C446.728 66.19 439.745 69 430.957 69C423.382 69 417.021 66.6955 411.872 62.0866C405.097 55.991 401.709 46.5798 401.709 33.8533C401.709 24.1894 404.253 16.265 409.343 10.0802C414.846 3.36005 422.436 0 432.111 0Z" fill="black"/>
<path d="M470.325 1.7841H478.935V33.7195L510.713 1.7841H522.918L495.8 28.1888L523.673 67.3051H512.178L489.365 34.4331L478.935 44.4686V67.3051H470.325V1.7841Z" fill="black"/>
<path d="M532.949 1.7841H541.87V67.3051H532.949V1.7841Z" fill="black"/>
<path d="M556.25 1.7841H566.68L599.612 54.861V1.7841H608V67.3051H598.103L564.682 14.2728V67.3051H556.25V1.7841Z" fill="black"/>
</svg>
